<?xml version="1.0" standalone="no"?>
<!DOCTYPE svg PUBLIC "-//W3C//DTD SVG 1.1//EN" "http://www.w3.org/Graphics/SVG/1.1/DTD/svg11.dtd" >
<svg xmlns="http://www.w3.org/2000/svg">
<metadata>
This is a custom SVG webfont generated by Font Squirrel.
Designer    : Michael Doret
Foundry     : Michael DoretAlphabet Soup Type Founders
Foundry URL : httpwwwfontbroscom
</metadata>
<defs>
<font id="webfontQnoczrs2" horiz-adv-x="254" >
<font-face units-per-em="1000" ascent="750" descent="-250" />
<missing-glyph horiz-adv-x="165" />
<glyph unicode=" "  horiz-adv-x="165" />
<glyph unicode="&#x09;" horiz-adv-x="165" />
<glyph unicode="&#xa0;" horiz-adv-x="165" />
<glyph unicode="!" horiz-adv-x="207" d="M213 605q6 21 30.5 34t49.5 13q36 0 36 -24q0 -6 -3 -13l-174 -432q-9 -21 -23.5 -34t-28.5 -13q-15 0 -15 17q0 7 3 16zM98 101q16 0 27 -8.5t11 -24.5q0 -24 -23.5 -46t-53.5 -22q-16 0 -27 9t-11 24q0 25 23.5 46.5t53.5 21.5z" />
<glyph unicode="&#x22;" horiz-adv-x="257" d="M110 518l26 94q5 18 20 29t31 11q27 0 27 -23q0 -9 -4 -17l-40 -94q-17 -40 -44 -40q-19 0 -19 23q0 7 3 17zM220 518l25 94q5 18 20.5 29t31.5 11q27 0 27 -23q0 -9 -4 -17l-40 -94q-17 -40 -44 -40q-19 0 -19 23q0 7 3 17z" />
<glyph unicode="#" horiz-adv-x="407" d="M403 423q16 0 16 -10t-13.5 -21t-29.5 -11h-54l-24 -70q-7 -22 -25.5 -36.5t-34.5 -14.5t-16 16q0 6 3 15l31 90h-61l-24 -70q-8 -22 -26.5 -36.5t-34.5 -14.5t-16 16q0 6 3 15l31 90h-65q-16 0 -16 10t13 21t29 11h53l23 66h-65q-17 0 -17 10t13.5 20.5t29.5 10.5h53 l25 71q8 22 26.5 36.5t34.5 14.5t16 -16q0 -6 -3 -15l-32 -91h61l24 71q7 22 26 36.5t35 14.5t16 -16q0 -6 -3 -15l-32 -91h67q16 0 16 -10t-13.5 -20.5t-29.5 -10.5h-54l-23 -66h67zM232 489l-23 -66h61l23 66h-61z" />
<glyph unicode="$" horiz-adv-x="297" d="M32 18l29 85q-33 7 -52.5 27t-23.5 34t-4 25q0 22 15 34.5t34 12.5q26 0 26 -18q0 -3 -7 -14.5t-7 -23.5q0 -28 31 -42l62 178l-29 40q-9 12 -20 38t-11 50q0 46 37 79.5t107 36.5l22 63q4 12 15 20.5t21 8.5t10 -10q0 -2 -2 -8l-26 -76q72 -13 72 -61q0 -21 -12.5 -34.5 t-30.5 -13.5q-25 0 -25 15q0 6 9 13t9 16q0 10 -9 19.5t-24 13.5l-58 -169q53 -69 53 -125q0 -58 -43 -95.5t-99 -37.5l-24 -70q-4 -12 -15 -20.5t-21 -8.5q-11 0 -11 10q0 2 2 8zM186 208q0 29 -24 68l-50 -144q32 2 53 22.5t21 53.5zM141 441q0 -17 21 -48l46 134 q-31 -7 -49 -33.5t-18 -52.5z" />
<glyph unicode="%" horiz-adv-x="607" d="M474 313q-61 -25 -93 -81t-32 -126q0 -71 46 -71q35 0 62 47.5t27 104.5q0 30 -9 50t-17.5 29t-8.5 13q0 9 10 16t24 7q27 0 44 -28.5t17 -62.5q0 -59 -18 -103.5t-45.5 -66t-52.5 -31.5t-46 -10q-44 0 -70.5 28t-26.5 77q0 93 61 164.5t124 71.5q18 0 18 -13 q0 -9 -14 -15zM53 21l454 613q13 18 44 18q22 0 22 -12q0 -4 -4 -9l-454 -613q-13 -18 -43 -18q-23 0 -23 12q0 4 4 9zM244 623q-61 -25 -93 -81t-32 -126q0 -71 46 -71q35 0 62 47.5t27 104.5q0 30 -9 50t-17.5 29t-8.5 13q0 9 10 16t24 7q27 0 44 -28.5t17 -62.5 q0 -59 -18 -103.5t-45.5 -66t-52.5 -31.5t-46 -10q-44 0 -70.5 28t-26.5 77q0 93 61 164.5t124 71.5q18 0 18 -13q0 -9 -14 -15z" />
<glyph unicode="&#x26;" horiz-adv-x="504" d="M515 373q-4 -41 -50 -81.5t-110 -67.5q28 -12 42 -35t14 -40v-17q0 -59 -42 -106.5t-103 -72t-125 -24.5q-86 0 -131.5 46.5t-45.5 120.5q0 108 101 200l22 19q-30 37 -30 94q0 94 81 166q87 77 183 77q51 0 84 -21.5t33 -58.5q0 -42 -45.5 -82.5t-103.5 -40.5 q-44 0 -47 13q0 5 13 8q59 12 86 39.5t27 58.5q0 25 -14 38.5t-36 13.5q-72 0 -128.5 -79t-56.5 -149q0 -23 7 -42q66 36 117 36q27 0 44 -12t17 -32q0 -29 -30 -50.5t-92 -21.5q-46 0 -74 16q-77 -80 -77 -162q0 -56 37 -101.5t100 -45.5q61 0 106 37.5t45 91.5 q0 73 -64 73q-28 0 -54.5 -22t-26.5 -56q0 -23 14 -45q3 -6 3 -12q0 -14 -22 -14q-31 0 -47 19t-16 45q0 58 59 101q43 31 137 64q59 21 109.5 55t64.5 67q7 16 15 16q10 0 10 -20v-4zM252 335q0 15 -16 15q-25 0 -73 -30q23 -15 46 -15q18 0 30.5 9.5t12.5 20.5z" />
<glyph unicode="'" horiz-adv-x="147" d="M110 518l26 94q5 18 20 29t31 11q27 0 27 -23q0 -9 -4 -17l-40 -94q-17 -40 -44 -40q-19 0 -19 23q0 7 3 17z" />
<glyph unicode="(" horiz-adv-x="317" d="M186 -40q18 -14 18 -28q0 -17 -22 -17q-8 0 -15 3q-71 22 -106.5 96t-35.5 174q0 87 36 174t89 149.5t114 101.5t110 39q21 0 21 -13q0 -8 -13 -14q-121 -54 -196 -181.5t-75 -254.5q0 -80 21.5 -142t53.5 -87z" />
<glyph unicode=")" horiz-adv-x="317" d="M138 607q-18 14 -18 28q0 16 21 16q10 0 16 -2q71 -22 106.5 -96t35.5 -174q0 -87 -36 -174t-89 -149.5t-114 -101.5t-110 -39q-21 0 -21 13q0 8 14 14q121 55 195.5 182t74.5 254q0 80 -21 142t-54 87z" />
<glyph unicode="*" horiz-adv-x="314" d="M289 612l-32 -79l85 29q10 3 18 3q23 0 23 -20q0 -13 -11 -24.5t-31 -16.5l-86 -21l28 -60q4 -10 4 -16q0 -16 -12.5 -28.5t-25.5 -12.5q-17 0 -22 19l-20 69l-67 -68q-20 -20 -41 -20q-23 0 -23 20q0 17 22 35l76 64l-73 24q-18 6 -18 21q0 12 12.5 23.5t28.5 11.5 q11 0 19 -4l61 -31l24 82q5 18 18 29t27 11q20 0 20 -21q0 -10 -4 -19z" />
<glyph unicode="+" horiz-adv-x="350" d="M320 350q15 0 15 -11t-14 -24t-30 -13h-87l-26 -76q-7 -21 -26 -36t-34 -15q-16 0 -16 16q0 7 3 16l32 95h-99q-15 0 -15 11t14.5 24t30.5 13h86l26 75q7 21 26 36t34 15q17 0 17 -17q0 -5 -3 -14l-33 -95h99z" />
<glyph unicode="," horiz-adv-x="207" d="M35 -42q27 33 31 43q-3 -1 -9 -1q-14 0 -25.5 10.5t-11.5 26.5q0 21 19 38.5t42 17.5q18 0 30 -11t12 -30q0 -21 -18 -52.5t-59 -54.5q-3 -2 -7 -2q-8 0 -8 7q0 4 4 8z" />
<glyph unicode="-" horiz-adv-x="237" d="M177 195q15 0 15 -11t-14.5 -24t-30.5 -13h-139q-15 0 -15 11t14 24t30 13h140z" />
<glyph unicode="." horiz-adv-x="207" d="M98 101q16 0 27 -8.5t11 -24.5q0 -24 -23.5 -46t-53.5 -22q-16 0 -27 9t-11 24q0 25 23.5 46.5t53.5 21.5z" />
<glyph unicode="/" horiz-adv-x="280" d="M-91 36l393 583q22 33 59 33q23 0 23 -17q0 -7 -8 -20l-393 -582q-23 -33 -59 -33q-23 0 -23 16q0 9 8 20z" />
<glyph unicode="0" horiz-adv-x="544" d="M19 198q0 86 34 171.5t86 146t114.5 98.5t118.5 38q22 0 22 -13q0 -9 -18 -16q-91 -37 -153.5 -112.5t-88 -155t-25.5 -158.5q0 -159 109 -159q77 0 140 95t63 225q0 110 -70 182q-11 11 -11 20q0 11 14.5 18.5t38.5 7.5q35 0 61.5 -32.5t38.5 -74.5t12 -81 q0 -86 -21.5 -156.5t-54.5 -114t-75 -73.5t-81 -42t-75 -12q-89 0 -134 55t-45 143z" />
<glyph unicode="1" horiz-adv-x="253" d="M88 51q-7 -22 -28.5 -36.5t-40.5 -14.5q-21 0 -21 17q0 7 3 14l172 499q-57 -43 -80 -43q-9 0 -15 5.5t-6 13.5t26 27l60 45q35 25 51 44q25 30 57 30q21 0 21 -18q0 -6 -3 -13z" />
<glyph unicode="2" horiz-adv-x="490" d="M19 55q61 33 152 33q15 0 41 -1.5t45 -1.5q77 0 106 19q5 4 12 4q16 0 16 -16q0 -9 -11.5 -33t-22.5 -41q-12 -18 -49 -18q-17 0 -80.5 8t-106.5 8q-57 0 -109 -12q-20 -4 -26 -4q-24 0 -24 27q0 65 120 143q197 126 259 191.5t62 144.5q0 36 -23.5 69t-76.5 33 q-46 0 -82.5 -34.5t-53 -78t-16.5 -81.5q0 -24 10.5 -40t21 -24.5t10.5 -13.5q0 -14 -19 -14q-50 0 -78.5 26t-28.5 67q0 94 80.5 165.5t176.5 71.5q131 0 167 -103q9 -27 9 -53q0 -123 -148 -225q-32 -22 -125 -75l-44 -25l-49 -29l-42 -26q-25 -16 -42.5 -31t-30.5 -30z " />
<glyph unicode="3" horiz-adv-x="457" d="M186 318q-9 0 -16 6t-7 15q0 12 13 25l192 192h-156q-45 0 -75 -18q-7 -4 -14 -4q-13 0 -13 11q0 19 40 70q17 22 55 22h240q28 0 28 -23q0 -21 -28 -49l-189 -190q7 2 23 2q44 0 81 -30t37 -89q0 -39 -14.5 -81.5t-43.5 -83t-80.5 -67t-116.5 -26.5q-66 0 -113.5 34.5 t-47.5 92.5q0 56 33.5 94t81.5 38q18 0 32.5 -6.5t14.5 -14.5q0 -12 -17 -15q-18 -5 -40.5 -30.5t-22.5 -63.5q0 -42 22 -66t54 -24q50 0 91.5 41.5t61.5 94t20 96.5q0 70 -56 70q-25 0 -43 -11.5t-27 -11.5z" />
<glyph unicode="4" horiz-adv-x="517" d="M219 31l48 141q-90 8 -142 8q-71 0 -120 -12q-12 -2 -15 -2q-24 0 -24 19q0 17 19 33q198 168 282 394q14 40 75 40q35 0 35 -18q0 -4 -1 -6q-38 -105 -123.5 -218t-199.5 -192q106 26 192 26q5 0 20.5 -0.5t26.5 -0.5l94 271q7 21 28.5 36t39.5 15q21 0 21 -19 q0 -8 -2 -13l-100 -288q27 1 46.5 6.5t29.5 10t14 4.5q16 0 16 -14q0 -25 -31 -70q-12 -18 -68 -18q-23 0 -35 1l-39 -114q-7 -22 -28.5 -36.5t-40.5 -14.5q-21 0 -21 18q0 6 3 13z" />
<glyph unicode="5" horiz-adv-x="420" d="M463 621q-20 -34 -63.5 -55.5t-97.5 -21.5q-55 0 -106 22l-60 -174q42 27 90 27q55 0 93.5 -37t38.5 -104q0 -117 -77 -197.5t-191 -80.5q-43 0 -87.5 28t-44.5 84t35 83.5t74 27.5q20 0 32 -7t12 -13q0 -8 -21 -16q-24 -8 -37.5 -30.5t-13.5 -49.5q0 -29 19.5 -47.5 t52.5 -18.5q47 0 80.5 23.5t49.5 61t23 72.5t7 69q0 51 -22.5 76t-57.5 25q-37 0 -81 -38q-14 -13 -29 -13t-15 15q0 7 2 11l100 290q8 19 37 19q16 0 36 -10q36 -20 93 -20q52 0 86.5 14t37.5 14q11 0 11 -11q0 -7 -6 -18z" />
<glyph unicode="6" horiz-adv-x="500" d="M157 300q16 53 61 84t97 31q56 0 95 -38t39 -110q0 -122 -73 -194.5t-172 -72.5q-88 0 -136 51t-48 137q0 70 27.5 150t76.5 145q60 79 138 124t140 45q21 0 21 -12q0 -10 -19 -17q-136 -55 -215.5 -164.5t-79.5 -258.5q0 -82 27.5 -122t73.5 -40q50 0 86 36t51.5 84 t15.5 97q0 50 -20.5 78.5t-57.5 28.5q-57 0 -84 -66q-12 -29 -32 -29q-15 0 -15 18q0 6 3 15z" />
<glyph unicode="7" horiz-adv-x="437" d="M173 37q-4 -24 -16.5 -30.5t-49.5 -6.5q-18 0 -26 1t-13.5 6t-5.5 16q0 8 3 23q51 219 186 356l37 38l46 46l37 40q24 26 37.5 45.5t21.5 36.5q-64 -40 -156 -40q-11 0 -27 0.5t-26 0.5q-107 0 -143 -23q-5 -4 -12 -4q-15 0 -15 14q-2 21 35 78q12 18 48 18 q18 0 81.5 -8.5t106.5 -8.5q54 0 109 13q20 4 26 4q23 0 23 -25q0 -18 -8 -39t-26.5 -47.5t-33.5 -45.5l-44 -53l-41 -50q-37 -47 -61 -85t-51 -110t-42 -160z" />
<glyph unicode="8" horiz-adv-x="467" d="M280 540q-6 -2 -17 -2q-21 0 -21 12q0 14 31.5 24.5t59.5 10.5q52 0 84.5 -28t32.5 -64q0 -40 -37 -81q-26 -30 -111 -66q94 -70 94 -151q0 -85 -73 -140t-179 -55q-88 0 -132.5 42t-44.5 98q0 54 39 102q40 49 163 95q-21 15 -33.5 26t-27.5 38t-15 59q0 77 75 134.5 t183 57.5q24 0 24 -13q0 -19 -47 -23q-60 -6 -108 -40.5t-48 -81.5q0 -57 91 -121q56 25 82.5 54.5t26.5 57.5q0 25 -19.5 41.5t-48.5 16.5q-12 0 -24 -3zM307 153q4 15 4 30q0 27 -16.5 51t-33 37t-50.5 36q-24 -10 -38 -16.5t-33.5 -18t-34 -24.5t-24.5 -29 q-24 -38 -24 -77q0 -43 30.5 -72.5t68.5 -29.5q59 0 98.5 32.5t52.5 80.5z" />
<glyph unicode="9" horiz-adv-x="500" d="M350 352q-16 -53 -61 -84.5t-97 -31.5q-57 0 -96 38t-39 110q0 62 24.5 121t82.5 103t139 44q88 0 136 -51.5t48 -138.5q0 -64 -24 -138.5t-65 -134.5q-60 -88 -143.5 -138.5t-149.5 -50.5q-21 0 -21 12q0 9 19 17q136 55 215 165t79 260q0 79 -27.5 119.5t-73.5 40.5 q-48 0 -84.5 -36t-52.5 -84.5t-16 -96.5q0 -50 20.5 -78.5t58.5 -28.5q57 0 83 66q12 29 32 29q15 0 15 -18q0 -10 -2 -15z" />
<glyph unicode=":" horiz-adv-x="207" d="M82 93q17 0 29 -10t12 -27q0 -21 -19.5 -38.5t-42.5 -17.5q-17 0 -28.5 10t-11.5 26q0 21 18 39t43 18zM153 299q17 0 29 -10t12 -27q0 -21 -19.5 -38.5t-42.5 -17.5q-17 0 -28.5 10t-11.5 26q0 21 18 39t43 18z" />
<glyph unicode=";" horiz-adv-x="207" d="M50 -42q27 30 31 43q-3 -1 -8 -1q-14 0 -26 10t-12 27q0 21 19 38.5t42 17.5q18 0 30 -11t12 -30q0 -21 -18 -52.5t-59 -54.5q-3 -2 -7 -2q-8 0 -8 7q0 4 4 8zM171 299q17 0 29 -10t12 -27q0 -22 -19.5 -39.5t-42.5 -17.5q-17 0 -28.5 10.5t-11.5 26.5q0 21 18 39t43 18z " />
<glyph unicode="&#x3c;" horiz-adv-x="350" d="M344 453q8 2 11 2q10 0 10 -10t-11 -23t-27 -18l-239 -78l185 -78q16 -7 16 -24q0 -10 -7 -18.5t-17 -8.5q-3 0 -9 2l-220 93q-16 6 -16 23q0 12 10.5 25t28.5 19z" />
<glyph unicode="=" horiz-adv-x="350" d="M304 305q15 0 15 -11q0 -12 -14 -25t-30 -13h-252q-16 0 -16 12q0 11 14.5 24t30.5 13h252zM336 395q15 0 15 -11t-14.5 -24t-30.5 -13h-252q-15 0 -15 11t14.5 24t30.5 13h252z" />
<glyph unicode="&#x3e;" horiz-adv-x="350" d="M83 404q-16 7 -16 23q0 11 7 19.5t17 8.5q3 0 9 -2l220 -93q15 -8 15 -24q0 -11 -10 -24t-28 -19l-285 -94q-8 -2 -11 -2q-11 0 -11 10t11.5 22.5t27.5 18.5l238 78z" />
<glyph unicode="?" horiz-adv-x="474" d="M193 387q-21 -9 -43 -9q-39 0 -61.5 30t-22.5 69q0 76 75 125.5t174 49.5q97 0 148 -44t51 -110q0 -23 -5.5 -43.5t-12.5 -36t-21.5 -30.5t-24.5 -24.5t-30 -21.5l-31 -18l-33 -16l-32 -15q-41 -21 -59 -73l-15 -43q-7 -20 -24 -30.5t-35 -10.5q-27 0 -27 20q0 2 2 10 l12 34q19 53 42.5 79t62.5 47q69 39 103 77t34 106q0 49 -32 76.5t-77 27.5q-68 0 -112.5 -40.5t-44.5 -93.5q0 -20 11 -35.5t28 -17.5q19 -2 19 -16q0 -15 -19 -23zM187 101q16 0 27 -8.5t11 -24.5q0 -24 -23.5 -46t-53.5 -22q-16 0 -27 9t-11 24q0 25 23.5 46.5t53.5 21.5 z" />
<glyph unicode="@" horiz-adv-x="560" d="M411 79q-83 -79 -181 -79q-90 0 -155.5 65t-65.5 161q0 109 88.5 202.5t230.5 93.5q100 0 153 -57.5t53 -136.5q0 -87 -63 -150t-116 -63q-51 0 -67 48q-39 -48 -88 -48q-36 0 -61.5 27t-25.5 66q0 77 66 143t144 66q39 0 64.5 -16t25.5 -46q0 -32 -22 -48.5t-40 -16.5 q-37 0 -37 17q0 5 17 15.5t17 28.5q0 28 -41 28q-46 0 -84 -52t-38 -105q0 -26 10.5 -44.5t29.5 -18.5q15 0 33 17t31 46l4 11q6 21 25.5 36t35.5 15q18 0 18 -18q0 -2 -7 -30t-7 -44q0 -29 25 -29q28 0 66 40t38 102q0 67 -43.5 117.5t-130.5 50.5q-108 0 -181 -68.5 t-73 -160.5q0 -93 55.5 -143.5t134.5 -50.5q81 0 142 50q11 8 17 8q11 0 11 -12q0 -9 -8 -17z" />
<glyph unicode="A" horiz-adv-x="566" d="M519 251l-52 -150q-7 -23 -7 -45q0 -73 42 -105q9 -7 9 -13q0 -9 -12 -9q-4 0 -6 1q-49 12 -78.5 53.5t-29.5 88.5q0 24 7 42l40 119h-227l-62 -182q-7 -22 -28.5 -36.5t-40.5 -14.5q-21 0 -21 17q0 7 3 14l69 202h-46q-16 0 -16 10t13.5 21t29.5 11h34l8 23 q67 195 223 296q-42 25 -96 25q-50 0 -103 -24t-92.5 -74.5t-39.5 -113.5q0 -28 11.5 -44.5t25 -20t25 -9t11.5 -13.5q0 -21 -54 -21q-43 0 -74 29t-31 79q0 106 101 175t230 69q74 0 134 -30q65 31 116 31q22 0 22 -15q0 -6 -4 -10t-12.5 -7.5t-18.5 -6.5t-26 -9.5 t-31 -13.5q81 -70 81 -191q0 -70 -27 -148zM234 315l-14 -40h226q21 76 21 132q0 93 -55 154q-120 -78 -178 -246z" />
<glyph unicode="B" horiz-adv-x="523" d="M287 619q-50 0 -103 -24t-92.5 -74t-39.5 -113q0 -29 11.5 -45.5t25 -20t25 -8.5t11.5 -13q0 -21 -54 -21q-43 0 -73.5 28.5t-30.5 79.5q0 71 49 128t123.5 86.5t157.5 29.5q102 0 162.5 -44t60.5 -115q0 -63 -50 -124t-116 -100q15 -4 30 -10t35 -19t32 -36t12 -53 q0 -63 -54 -116t-127.5 -79.5t-141.5 -26.5q-94 0 -143.5 31t-49.5 76q0 49 49.5 76t109.5 30l129 372q7 21 28.5 36t39.5 15q21 0 21 -19q0 -8 -2 -13l-139 -402q55 -21 55 -67q0 -17 -9.5 -28t-21.5 -11q-8 0 -11.5 5.5t-4 13.5t-7 18.5t-18.5 18.5l-4 -12 q-7 -22 -29 -36.5t-40 -14.5q-21 0 -21 18q0 6 3 14l19 55q-22 -2 -43.5 -17t-21.5 -42q0 -75 145 -75q93 0 148 57.5t55 119.5q0 44 -25.5 69t-55.5 25q-2 0 -7 -0.5t-7 -0.5q-19 0 -19 13q0 10 16 17q55 25 104.5 86.5t49.5 132.5q0 59 -45.5 94t-100.5 35z" />
<glyph unicode="C" horiz-adv-x="452" d="M487 123l-21 -25q-64 -73 -131 -113q-96 -56 -176 -56q-76 0 -132 58q-52 55 -52 150q0 127 86.5 269t212.5 213q58 33 118 33q59 0 99.5 -33.5t40.5 -89.5q0 -71 -66 -135t-153 -64q-53 0 -53 19q0 10 16 14q69 16 119 67t50 125q0 62 -50 62q-59 0 -136 -74t-133 -185 t-56 -204q0 -66 33 -115t99 -49q48 0 99 24q53 25 84.5 49t66.5 65q3 3 9 11t10 12q6 9 16 9q11 0 11 -13q0 -12 -11 -24z" />
<glyph unicode="D" horiz-adv-x="577" d="M163 -29q108 0 192.5 111.5t109.5 283.5q3 21 3 42q0 89 -53 150t-139 61q-50 0 -103 -24t-92.5 -74t-39.5 -113q0 -29 11.5 -45.5t25 -20t25 -8.5t11.5 -13q0 -21 -54 -21q-43 0 -74 28.5t-31 79.5q0 71 49 128t124 86.5t158 29.5q120 0 199 -71.5t79 -186.5 q0 -22 -3 -46q-17 -121 -84 -218t-159 -149t-189 -52q-94 0 -143 31t-49 76q0 49 49 76t109 30l129 372q7 21 28.5 36t39.5 15q21 0 21 -19q0 -8 -2 -13l-139 -402q55 -21 55 -67q0 -17 -9.5 -28t-21.5 -11q-16 0 -16 17q0 18 -25 39l-4 -12q-7 -22 -29 -36.5t-40 -14.5 q-21 0 -21 18q0 6 3 14l19 55q-22 -2 -43.5 -17t-21.5 -42q0 -75 145 -75z" />
<glyph unicode="E" horiz-adv-x="385" d="M-16 -6q-11 21 -11 51q0 73 62 133l2 2q-69 52 -69 134q0 111 119 223q57 53 129.5 84t127.5 31q50 0 83.5 -31t33.5 -87q0 -76 -63.5 -140t-151.5 -64q-23 0 -40 6t-17 14q0 9 19 13q87 20 134.5 73t47.5 105q0 31 -17 50.5t-48 19.5q-51 0 -112.5 -45.5t-105.5 -117 t-44 -138.5q0 -56 26 -91q67 39 124 39q28 0 44.5 -11.5t16.5 -32.5q0 -29 -29.5 -50t-91.5 -21q-33 0 -61 9l-1 -1q-32 -47 -32 -92q0 -68 77 -68q47 0 97 23q54 25 85.5 49t66.5 65q3 3 9 11t10 12q9 9 16 9q11 0 11 -14q0 -9 -11 -23l-21 -25q-47 -55 -88 -84 q-118 -85 -215 -85q-80 0 -112 65zM209 209q0 14 -17 14q-28 0 -67 -34q22 -11 40 -11q19 0 31.5 9.5t12.5 21.5z" />
<glyph unicode="F" horiz-adv-x="427" d="M382 275q16 0 16 -10t-13.5 -20.5t-29.5 -10.5h-115l-43 -127q-32 -94 -85 -136t-107 -42q-20 0 -20 11q0 7 13 13.5t30 13.5t36.5 27t29.5 49l66 191h-47q-16 0 -16 10t13.5 20.5t29.5 10.5h34l82 239q6 19 23.5 32.5t35.5 16.5q-98 52 -166 52q-65 0 -108 -35.5 t-43 -107.5q0 -52 32.5 -89t77.5 -37q22 0 22 -16q0 -11 -18 -20.5t-54 -9.5q-56 0 -90 38.5t-34 103.5q0 32 13.5 66.5t40.5 67.5t77 54.5t115 21.5q63 0 119.5 -14t88.5 -32l58 -31q27 -14 38 -14q6 0 12 1.5t8 1.5q15 0 15 -11t-20 -34.5t-44 -23.5q-21 0 -110 51 q0 -8 -2 -13l-89 -258h128z" />
<glyph unicode="G" horiz-adv-x="523" d="M425 338l9 26q6 18 26.5 33.5t41.5 15.5q20 0 20 -18q0 -8 -2 -13l-135 -390q52 -3 81.5 -22t29.5 -47q0 -15 -12.5 -37.5t-29.5 -22.5q-14 0 -14 13q0 3 1 9.5t1 9.5q0 51 -69 60l-3 -9q-32 -94 -88.5 -136t-112.5 -42q-38 0 -62.5 20t-24.5 48q0 53 68.5 93t152.5 56 l72 209q-60 -81 -134.5 -137.5t-130.5 -56.5q-52 0 -80 36t-28 87q0 50 17 104q-10 -1 -29 -1q-33 0 -59.5 20.5t-26.5 51.5q0 47 33 82t54 35q9 0 9 -10q0 -6 -6.5 -25t-6.5 -29q0 -53 58 -59q65 138 192 248.5t202 110.5q65 0 65 -65q0 -94 -125.5 -197.5t-271.5 -145.5 q-15 -48 -15 -87q0 -42 21.5 -63.5t48.5 -21.5q28 0 69.5 29.5t81.5 74.5q90 99 112 163zM361 589q-36 -15 -113.5 -104t-120.5 -187q114 23 198 111t84 160q0 26 -23 26q-10 0 -25 -6zM167 -147q0 -14 10.5 -24.5t23.5 -10.5q1 0 2.5 0.5t2.5 0.5q43 11 61 63l23 67 q-51 -12 -87 -38t-36 -58z" />
<glyph unicode="H" horiz-adv-x="521" d="M447 -49q9 -7 9 -13q0 -9 -13 -9q-3 0 -5 1q-48 12 -73 63t-25 129q0 58 13 119q-32 -7 -71 -7h-76l-63 -183q-8 -22 -29.5 -36.5t-40.5 -14.5q-21 0 -21 18q0 6 3 13l70 203h-46q-16 0 -16 10t13.5 20.5t29.5 10.5h33l103 298q-63 44 -120 44q-59 0 -97.5 -41.5 t-38.5 -103.5q0 -52 33 -89t77 -37q22 0 22 -16q0 -11 -18 -20.5t-53 -9.5q-57 0 -91 38.5t-34 103.5q0 30 12.5 64t36.5 68t67 56t97 22q38 0 92 -13.5t85 -32.5q13 -8 13 -18q0 -8 -2 -14l-103 -299h91q31 0 52 5q53 192 190 325q47 46 87 46q26 0 39 -18.5t13 -47.5 q0 -75 -70 -170.5t-177 -144.5q-37 -123 -37 -205q0 -85 39 -114zM518 459q-34 -74 -56 -138q78 53 122 135t44 128q0 19 -10 19q-13 0 -39.5 -36.5t-60.5 -107.5z" />
<glyph unicode="I" horiz-adv-x="281" d="M55 513q-57 -67 -57 -151q0 -45 25 -75t56 -30q22 0 22 -15q0 -6 -7 -13.5t-24 -14t-40 -6.5q-43 0 -72 34.5t-29 85.5q0 54 30 117t86 109q59 49 135.5 73.5t145.5 24.5q19 0 19 -20q0 -2 -2 -10l-177 -515q-32 -94 -85 -136t-107 -42q-20 0 -20 11q0 10 31 20 q21 7 44 30t34 53l189 549q-131 0 -197 -79z" />
<glyph unicode="J" horiz-adv-x="320" d="M220 -120q1 5 1 15q0 51 -69 60l-3 -9q-32 -94 -88.5 -136t-112.5 -42q-37 0 -62 20t-25 48q0 36 36.5 68t84.5 51.5t100 29.5l209 607h-10q-69 0 -128 -32t-89 -92q-27 -54 -27 -108q0 -44 25 -73.5t56 -29.5q21 0 21 -15q0 -11 -18.5 -22.5t-51.5 -11.5q-43 0 -72 34.5 t-29 85.5q0 48 22 100t59 93q55 61 141.5 96t174.5 35q19 0 19 -20q0 -2 -2 -10l-218 -630q52 -3 81.5 -22t29.5 -47q0 -15 -12.5 -37.5t-29.5 -22.5q-14 0 -14 13l1 2v2zM-20 -181q21 0 40 19t27 44l23 67q-51 -12 -87 -38t-36 -58q0 -14 10 -24t23 -10z" />
<glyph unicode="K" horiz-adv-x="488" d="M302 159q-9 24 -24 45q-47 -27 -99 -38l-40 -115q-8 -22 -29 -36.5t-40 -14.5q-21 0 -21 17q0 7 3 14l45 133q-42 4 -66.5 21.5t-24.5 40.5q0 28 37 51.5t102 23.5l40 117q15 45 15 84q0 49 -23 78.5t-62 29.5q-50 0 -84 -52.5t-34 -102.5q0 -68 37 -68q11 0 25 11.5 t20 11.5q13 0 13 -23q0 -29 -29.5 -56t-65.5 -27q-28 0 -48 23.5t-20 76.5q0 104 72.5 176t146.5 72q57 0 95 -39t38 -107q0 -42 -16 -90l-42 -122q33 -7 63 -23q61 56 114.5 143t88.5 187q7 21 31 36t45 15q25 0 25 -20q0 -2 -2 -12q-35 -99 -103.5 -206t-154.5 -174 q42 -35 61 -93q5 -15 14 -45.5t14 -45.5t13 -36t17 -36.5t19 -28.5q7 -9 7 -16q0 -10 -14 -10q-82 0 -159 230zM134 271q-32 -2 -50.5 -15t-18.5 -29q0 -11 12 -22t31 -11zM193 209q25 10 53 30q-17 13 -35 20z" />
<glyph unicode="L" horiz-adv-x="290" d="M336 -139q-31 0 -65.5 8t-58 16.5t-63.5 24.5l-58 24q-69 -72 -151 -72q-35 0 -59 16t-24 40q0 41 36 61.5t93 20.5q30 0 76 -7l111 324q-13 -1 -39 -1q-38 0 -62 17t-24 52q0 40 30 73t53 33q13 0 13 -14q0 -6 -6.5 -25t-6.5 -29q0 -47 63 -47l15 44q13 37 24.5 62.5 t34 60t58 60.5t82.5 41q21 7 48 7q36 0 56 -20.5t20 -53.5q0 -69 -78.5 -143t-195.5 -104l-93 -270q-15 -45 -39 -81q2 -1 21 -7l32 -8q13 -4 37.5 -10t45 -9.5t46 -6t48.5 -2.5q99 0 142 36q10 8 16 8q9 0 9 -11q0 -3 -2 -9q-38 -99 -185 -99zM294 432l-17 -48 q53 10 91.5 31t57.5 47t27 49.5t8 44.5q0 49 -42 49q-40 0 -66.5 -41.5t-58.5 -131.5zM-61 -68q0 -22 28 -22q42 0 74 41q-37 10 -60 10q-42 0 -42 -29z" />
<glyph unicode="M" horiz-adv-x="647" d="M547 340q9 27 9 29t-1 2q-7 0 -55.5 -60t-104 -140t-74.5 -124q-9 -21 -27 -34t-36 -13q-20 0 -20 18q0 6 3 15l124 360q9 25 9 28q0 2 -1 2q-15 0 -112.5 -144.5t-139.5 -231.5q-11 -22 -28.5 -34.5t-34.5 -12.5q-20 0 -20 18q0 6 3 15l133 386q15 45 15 82q0 49 -23 79 t-62 30q-50 0 -84.5 -53t-34.5 -102q0 -68 37 -68q13 0 26.5 11.5t18.5 11.5q13 0 13 -23q0 -29 -29.5 -56t-65.5 -27q-28 0 -48 23.5t-20 76.5q0 104 72.5 176t146.5 72q55 0 92 -38t37 -103q0 -43 -18 -95l-60 -174q49 75 115 165t97 123q33 34 64 34q25 0 25 -22 q0 -10 -5 -23l-105 -305q64 95 198 258q34 40 70 40q30 0 30 -25q0 -6 -5 -21l-126 -365q-7 -18 -7 -47q0 -72 42 -103q8 -7 8 -13q0 -9 -12 -9q-3 0 -5 1q-50 12 -79 54t-29 90q0 20 6 40z" />
<glyph unicode="N" horiz-adv-x="493" d="M389 101q-7 -18 -7 -47q0 -72 42 -103q9 -7 9 -13q0 -9 -12 -9q-4 0 -6 1q-49 12 -79 53.5t-30 89.5q0 23 7 41l100 289q6 15 6 19q0 3 -2 3q-4 0 -86 -96q-127 -148 -206 -285q-11 -19 -30.5 -31.5t-35.5 -12.5q-21 0 -21 18q0 6 3 13l133 388q15 45 15 82q0 49 -23 79 t-62 30q-50 0 -84.5 -53t-34.5 -102q0 -68 37 -68q13 0 26.5 11.5t18.5 11.5q13 0 13 -23q0 -29 -29.5 -56t-65.5 -27q-28 0 -48 23t-20 76q0 104 73 176.5t147 72.5q56 0 94.5 -39t38.5 -106q0 -38 -17 -91l-76 -222q54 82 139.5 191t126.5 146q36 33 69 33q26 0 26 -22 q0 -10 -6 -25z" />
<glyph unicode="O" horiz-adv-x="520" d="M217 134q-42 0 -63 30.5t-21 78.5q0 37 12 73q39 115 112 181t144 66q52 0 84.5 -38t32.5 -111q0 -40 -10 -86q-21 -96 -56 -169.5t-73 -116t-82.5 -69t-80.5 -35.5t-72 -9q-81 0 -123.5 58t-42.5 155q0 91 40 187t97 165t120.5 113.5t111.5 44.5q22 0 22 -14 q0 -12 -16 -18q-88 -32 -155.5 -118.5t-98.5 -181t-31 -178.5t28 -127.5t69 -43.5q61 0 130.5 69.5t110.5 203.5q27 90 27 156q0 52 -16.5 80.5t-42.5 28.5q-38 0 -80.5 -55.5t-72.5 -157.5q-11 -38 -11 -76q0 -30 12 -51l12 -21q0 -14 -17 -14z" />
<glyph unicode="P" horiz-adv-x="510" d="M207 514q8 21 29.5 36t39.5 15q21 0 21 -18q0 -7 -3 -14l-146 -426q-32 -94 -85.5 -136t-106.5 -42q-20 0 -20 11q0 6 4.5 9.5t15 6.5t12.5 4q21 9 43.5 29.5t33.5 53.5zM289 652q111 0 179 -50.5t68 -144.5q0 -98 -80.5 -175.5t-170.5 -77.5q-23 0 -40 5t-23 10t-6 10 q0 11 11 11q3 0 10 -1.5t12 -1.5q20 0 44 7t51 24.5t49.5 42.5t38.5 64.5t18 86.5q0 73 -55 115t-116 42q-89 0 -162 -58.5t-73 -152.5q0 -29 11.5 -45.5t25 -20t25 -8.5t11.5 -13q0 -21 -54 -21q-43 0 -74 28.5t-31 79.5q0 71 49 128t124 86.5t158 29.5z" />
<glyph unicode="Q" horiz-adv-x="520" d="M384 -94q9 -7 9 -15q0 -11 -14 -11q-28 0 -65 19.5t-68 49.5q-51 -20 -103 -20q-80 0 -123 57.5t-43 153.5q0 92 39.5 188t97 165.5t121.5 114t112 44.5q22 0 22 -14q0 -12 -17 -18q-67 -25 -123 -81t-90 -124.5t-52.5 -139.5t-18.5 -133q0 -84 28 -127.5t68 -43.5 q22 0 50 11q-87 103 -87 228q0 56 18 106q39 115 112.5 181t144.5 66q51 0 83.5 -38t32.5 -111q0 -40 -10 -86q-57 -261 -210 -353q37 -37 86 -69zM220 296q-15 -57 -15 -105q0 -99 60 -178q62 42 114.5 158.5t52.5 225.5q0 54 -17 83.5t-44 29.5q-39 0 -81 -55.5 t-70 -158.5z" />
<glyph unicode="R" horiz-adv-x="510" d="M336 264q53 31 82.5 85t29.5 120q0 69 -56 109.5t-114 40.5q-89 0 -162 -58.5t-73 -152.5q0 -29 11.5 -45.5t25 -20t25 -8.5t11.5 -13q0 -21 -55 -21q-43 0 -73.5 28.5t-30.5 79.5q0 71 49 128t123.5 86.5t157.5 29.5q112 0 180 -51t68 -146q0 -81 -58 -149.5t-136 -92.5 q11 -75 38.5 -147t60.5 -112q7 -9 7 -16q0 -10 -13 -10q-46 0 -97.5 86.5t-67.5 189.5q-18 1 -31 6t-18 9.5t-5 8.5q0 12 11 12q2 0 10 -1.5t14 -1.5q10 0 15 1q-1 9 -1 26q0 26 16.5 44t30.5 18q6 0 10 -1.5t7 -5.5t4.5 -7t2 -10t1 -11.5t0.5 -13.5v-13zM40 31l166 483 q7 21 28.5 36t39.5 15q21 0 21 -19q0 -8 -2 -13l-166 -482q-8 -22 -29.5 -36.5t-40.5 -14.5q-20 0 -20 17q0 7 3 14z" />
<glyph unicode="S" horiz-adv-x="421" d="M486 520q0 -68 -55 -118.5t-126 -50.5q-42 0 -75 14t-33 28q0 11 14 11q3 0 22.5 -4t38.5 -4q58 0 96.5 33t38.5 92q0 39 -28.5 64.5t-74.5 25.5q-24 0 -50.5 -6.5t-55 -20.5t-46.5 -42t-18 -65q0 -43 18 -84.5t44 -74.5l50 -66q26 -31 44 -66t18 -68q0 -86 -59 -137.5 t-139 -51.5q-69 0 -111 30.5t-42 75.5q0 48 36.5 78.5t91.5 30.5q49 0 76 -21t27 -51q0 -17 -8 -28.5t-17 -11.5q-13 0 -18 21q-12 50 -55 50q-23 0 -42 -16t-19 -42q0 -33 28 -54.5t65 -21.5q14 0 33 5.5t40 17t35 35.5t14 56q0 23 -10.5 44.5t-42.5 58.5q-73 86 -96 127 q-37 65 -37 128q0 65 41.5 115t100.5 73t122 23q66 0 115 -38t49 -94z" />
<glyph unicode="T" horiz-adv-x="427" d="M59 300q-57 0 -91 38t-34 104q0 32 13.5 66.5t40.5 67.5t77 54.5t115 21.5q66 0 122 -14t86 -31.5t56.5 -31.5t40.5 -14q5 0 11 2t9 2q14 0 14 -12q0 -11 -20 -34.5t-43 -23.5q-21 0 -110 51q0 -8 -2 -13l-147 -426q-32 -94 -85 -136t-107 -42q-19 0 -19 11q0 12 21 16 q21 5 48 28t40 59l162 471q6 18 23 31.5t35 17.5q-98 52 -166 52q-64 0 -107.5 -35.5t-43.5 -107.5q0 -52 33 -89t77 -37q22 0 22 -16q0 -11 -18 -20.5t-53 -9.5z" />
<glyph unicode="U" horiz-adv-x="507" d="M465 514q7 21 28.5 36t40.5 15q21 0 21 -18q0 -7 -3 -14l-149 -432q-7 -19 -7 -47q0 -72 42 -103q8 -7 8 -13q0 -9 -12 -9q-3 0 -5 1q-50 12 -79 54t-29 90q0 22 6 40l12 34q-110 -148 -194 -148q-38 0 -60.5 30t-22.5 68q0 9 1 13q7 58 37.5 130.5t73 153.5t58.5 123 q9 26 9 44q0 23 -12 35.5t-33 12.5q-54 0 -107 -66q-56 -70 -56 -135q0 -26 9.5 -41.5t23.5 -15.5q3 0 8 1t7 1q11 0 11 -10q0 -15 -19.5 -29.5t-42.5 -14.5q-30 0 -54.5 24t-24.5 64q0 50 42 112t107.5 107t125.5 45q98 0 98 -79q0 -28 -11 -56q-22 -59 -66 -147.5 t-71 -152t-27 -100.5q0 -50 33 -50q44 0 114 80.5t108 190.5z" />
<glyph unicode="V" horiz-adv-x="489" d="M137 0q-46 0 -72 30.5t-26 68.5q0 66 62 197l37 74l42 84q17 36 28 64q9 26 9 44q0 23 -12 35.5t-33 12.5q-54 0 -107 -66q-56 -68 -56 -135q0 -26 9.5 -41.5t23.5 -15.5q3 0 8 1t7 1q12 0 12 -10q0 -13 -19.5 -28.5t-43.5 -15.5q-30 0 -54.5 24t-24.5 64 q0 49 42.5 111.5t108 107.5t124.5 45q98 0 98 -79q0 -28 -11 -56q-22 -58 -67 -149.5t-73 -157.5t-28 -105q0 -55 48 -55q40 0 103 76.5t116 189.5t64 205q0 1 0.5 18.5t4 30t13.5 25.5q14 18 38.5 37.5t41.5 19.5q22 0 22 -38q0 -48 -26 -125.5t-71.5 -161t-100 -157.5 t-118.5 -122t-119 -48z" />
<glyph unicode="W" horiz-adv-x="689" d="M510 451q0 -166 -171 -336q9 -36 25 -50.5t32 -14.5q40 0 91.5 77t88.5 189.5t37 204.5q0 5 -1.5 16t-1.5 18q0 23 12 40q12 18 34 37.5t39 19.5q28 0 28 -58q0 -67 -31 -167t-79.5 -195.5t-118 -163.5t-136.5 -68q-54 0 -83 59q-78 -59 -139 -59q-46 0 -72 31t-26 69 q0 30 19 89q23 70 77 173.5t74 155.5q9 26 9 44q0 23 -12 35.5t-33 12.5q-54 0 -107 -66q-56 -70 -56 -134q0 -26 9.5 -42t23.5 -16q3 0 8 1t7 1q11 0 11 -10q0 -17 -20.5 -30.5t-41.5 -13.5q-30 0 -54.5 24t-24.5 64q0 53 44 115.5t109 105.5t122 43q98 0 98 -79 q0 -28 -11 -56q-22 -58 -65.5 -146.5t-71 -152t-27.5 -99.5q0 -57 49 -57q37 0 86 35q-8 25 -8 58q0 82 36 166t86.5 135.5t91.5 51.5q19 0 31.5 -17.5t12.5 -39.5zM330 204q0 -25 1 -36q55 70 81.5 149t26.5 116q0 14 -7 14q-13 0 -37 -36.5t-44.5 -96t-20.5 -110.5z" />
<glyph unicode="X" horiz-adv-x="511" d="M12 28l240 294q-23 171 -40.5 229.5t-59.5 58.5q-41 0 -94 -66q-56 -70 -56 -135q0 -26 9.5 -41.5t23.5 -15.5q3 0 8 1t7 1q12 0 12 -10q0 -15 -20.5 -29.5t-42.5 -14.5q-30 0 -54.5 24t-24.5 64q0 80 92.5 172t182.5 92q91 0 112 -135l17 -108l157 192q17 21 48.5 36 t52.5 15q18 0 18 -11q0 -9 -11 -21l-253 -294q26 -165 35 -203q9 -40 19 -56t25 -16t65 45l16 16l13 14q4 4 9 7t10 3q11 0 11 -10q0 -11 -14 -28q-30 -36 -74 -71q-33 -27 -65 -27q-30 0 -55 23q-19 17 -31 49t-17.5 61t-18.5 109l-191 -222q-17 -20 -52 -20q-18 0 -18 10 q0 6 9 18z" />
<glyph unicode="Y" horiz-adv-x="497" d="M405 352l56 162q7 21 28.5 36t40.5 15q21 0 21 -18q0 -7 -3 -14l-187 -541q52 -3 81.5 -22t29.5 -47q0 -17 -13 -38.5t-29 -21.5q-14 0 -14 13q0 3 1 9.5t1 9.5q0 51 -69 60l-3 -9q-32 -94 -88.5 -136t-112.5 -42q-38 0 -62.5 20t-24.5 48q0 51 67.5 91.5t152.5 57.5 l58 166q-111 -151 -195 -151q-38 0 -60.5 30t-22.5 68q0 52 30 125t76.5 161.5t63.5 133.5q9 26 9 44q0 23 -12 35.5t-33 12.5q-54 0 -107 -66q-56 -70 -56 -134q0 -26 9.5 -42t23.5 -16q3 0 8 1t7 1q11 0 11 -10q0 -16 -20.5 -30t-41.5 -14q-30 0 -54.5 24t-24.5 64 q0 48 41 110t106.5 108t127.5 46q98 0 98 -79q0 -28 -11 -56q-22 -59 -66 -147.5t-71 -152t-27 -100.5q0 -50 34 -50q45 0 114.5 81.5t111.5 203.5zM143 -147q0 -14 10.5 -24t23.5 -10q18 0 36.5 16.5t29.5 46.5l23 67q-51 -12 -87 -38t-36 -58z" />
<glyph unicode="Z" horiz-adv-x="440" d="M97 302q-9 -2 -27 -2q-55 0 -88.5 33t-33.5 80q0 73 52 129.5t123.5 83t142.5 26.5q101 0 154.5 -46.5t53.5 -117.5q0 -75 -48 -144.5t-105 -106.5q39 -40 39 -103q0 -67 -41 -147q73 -17 73 -63q0 -20 -14 -40.5t-29 -20.5q-13 0 -13 13q0 4 0.5 10.5t0.5 8.5 q0 38 -40 53q-53 -86 -112.5 -133.5t-117.5 -47.5q-39 0 -64 20t-25 48q0 43 50 80t111.5 56t111.5 21q35 73 35 140q0 42 -18 74q-62 -33 -114 -33q-34 0 -57.5 13t-23.5 35q0 25 35.5 45.5t83.5 20.5q52 0 91 -23q40 37 72.5 101t32.5 131q0 60 -36.5 91.5t-97.5 31.5 q-38 0 -87.5 -22t-91 -71t-41.5 -110q0 -32 16 -47.5t39 -15.5q46 0 104 60q10 8 16 8q12 0 12 -12q0 -6 -4 -13q-47 -83 -120 -94zM154 -152q42 42 79 108q-63 -4 -116.5 -33.5t-53.5 -69.5q0 -15 11 -24.5t25 -9.5q26 0 55 29zM209 216q14 6 34 18q-24 18 -52 18 q-22 0 -38 -8.5t-16 -18.5q0 -17 34 -17q22 0 38 8z" />
<glyph unicode="[" horiz-adv-x="250" d="M228 538l-149 -434q-22 -66 -22 -97q0 -38 27 -68q7 -7 7 -13q0 -11 -12 -11q-5 0 -15 5q-33 18 -51.5 54.5t-18.5 82.5q0 34 11 67l134 389q24 69 73.5 103.5t101.5 34.5q23 0 23 -11q0 -9 -23 -16q-24 -8 -49.5 -31t-36.5 -55z" />
<glyph unicode="\" horiz-adv-x="280" d="M111 48v580q0 25 21 25q15 0 28.5 -14.5t13.5 -34.5v-579q0 -25 -21 -25q-15 0 -28.5 14t-13.5 34z" />
<glyph unicode="]" horiz-adv-x="250" d="M44 29l149 434q21 61 21 97q0 39 -26 68q-7 7 -7 13q0 11 13 11q24 0 54 -39.5t30 -103.5q0 -33 -11 -66l-134 -389q-24 -70 -74 -104.5t-101 -34.5q-23 0 -23 11q0 8 20 14.5t47.5 27.5t41.5 61z" />
<glyph unicode="^" horiz-adv-x="298" d="M59 287q-18 -26 -42 -26q-13 0 -13 10q0 6 7 16l180 252q19 26 41 26q10 0 18 -6.5t8 -19.5l6 -252q0 -12 -6.5 -19t-16.5 -7t-17.5 7t-7.5 19l-6 211z" />
<glyph unicode="_" horiz-adv-x="494" d="M334 -28q15 0 15 -11t-14.5 -24t-30.5 -13h-396q-15 0 -15 11t14 24t30 13h397z" />
<glyph unicode="`" d="M344 726q9 -8 9 -16q0 -14 -13 -14q-2 0 -10 3l-8 3l-131 48q-14 6 -14 17q0 5 2 11l12 36q5 14 16 14q5 0 13 -5z" />
<glyph unicode="a" horiz-adv-x="315" d="M329 98q-40 -47 -79 -72.5t-66 -25.5q-43 0 -48 40q-35 -40 -79 -40q-35 0 -60 26t-25 65q0 73 63.5 141t147.5 68q39 0 64 -15.5t25 -44.5q0 -33 -20.5 -46.5t-39.5 -13.5q-36 0 -36 17q0 5 15.5 12.5t15.5 25.5q0 27 -40 27q-50 0 -87 -55t-37 -107q0 -23 9.5 -39.5 t27.5 -16.5q17 0 38.5 21t33.5 53q8 21 27 35.5t36 14.5q18 0 18 -16q0 -6 -3 -15q-25 -81 -25 -82q0 -9 8 -9q13 0 40.5 21.5t61.5 60.5q6 8 17 8t11 -10q0 -11 -14 -28z" />
<glyph unicode="b" horiz-adv-x="359" d="M241 604q0 -135 -96 -332q24 27 59 27q36 0 60.5 -29.5t24.5 -73.5q0 -54 -33 -101q8 -3 22 -3q51 0 81 36q6 8 17 8t11 -10q0 -11 -14 -28q-40 -50 -103 -50q-23 0 -47 8q-59 -56 -124 -56q-44 0 -71.5 31.5t-27.5 94.5q0 87 26 185t61.5 171t72 121.5t59.5 48.5 q22 0 22 -48zM168 520q0 23 -6 23q-10 0 -31 -58t-39.5 -142t-20.5 -144q40 78 68.5 182t28.5 139zM124 230q-27 -50 -52 -86q6 -100 63 -100q29 0 55 28q-72 45 -72 122q0 20 6 36zM187 250q-35 0 -35 -50q0 -58 62 -91q11 27 11 62q0 32 -9.5 55.5t-28.5 23.5z" />
<glyph unicode="c" horiz-adv-x="261" d="M141 264q-37 0 -66 -47t-29 -97q0 -34 20 -52.5t53 -18.5q74 0 142 79q6 8 17 8t11 -10q0 -11 -14 -28q-37 -44 -88 -71t-100 -27q-50 0 -82 29.5t-32 76.5q0 75 54.5 134.5t131.5 59.5q33 0 55 -17.5t22 -44.5q0 -31 -23 -55t-52 -24q-17 0 -27.5 8.5t-10.5 19.5 q0 6 4.5 11t11.5 5h5q23 0 23 31q0 30 -26 30z" />
<glyph unicode="d" horiz-adv-x="358" d="M159 299q14 0 26 -2q22 89 62 173.5t78 132.5t62 48q22 0 22 -47q0 -90 -56 -237.5t-120 -233.5q4 -80 30 -80q29 0 95 75q6 8 17 8t11 -10q0 -11 -14 -28q-83 -98 -139 -98q-43 0 -61 55q-53 -55 -109 -55q-39 0 -64.5 28.5t-25.5 72.5q0 73 59.5 135.5t126.5 62.5z M45 113q0 -32 12 -51t32 -19q34 0 75 46q-2 24 -2 37q0 19 2 53q-25 4 -25 17q0 4 16 11t16 26q0 22 -25 22q-43 0 -72 -43.5t-29 -98.5zM240 264q-7 -44 -7 -76q32 57 57.5 137.5t35.5 131t10 63.5q0 23 -6 23q-15 0 -45.5 -93.5t-44.5 -185.5z" />
<glyph unicode="e" horiz-adv-x="261" d="M261 128q6 8 17 8t11 -10q0 -11 -14 -28q-38 -45 -88.5 -71.5t-99.5 -26.5t-81.5 29.5t-32.5 76.5q0 73 53.5 133.5t132.5 60.5q35 0 54.5 -18t19.5 -43q0 -39 -44.5 -83.5t-100.5 -70.5q-6 -3 -11 -3q-14 0 -14 12q0 10 14 21q84 67 84 122q0 28 -23 28q-32 0 -62 -47 t-30 -98q0 -34 20 -52.5t53 -18.5q74 0 142 79z" />
<glyph unicode="f" horiz-adv-x="231" d="M245 98q-43 -50 -130 -94q16 -33 16 -89q0 -93 -54 -171.5t-104 -78.5q-61 0 -61 107q0 91 67 343q59 225 148.5 381t137.5 156q25 0 25 -48q0 -137 -77 -298.5t-157 -235.5q-3 -3 -11 -10t-12 -11q-52 -201 -52 -283q0 -43 22 -43q14 0 27 20t22 65t9 107 q0 25 -2.5 43.5t-5 27.5t-2.5 12q0 14 16 22q3 1 21.5 10.5t23 12t21 11t23.5 12.5l19 14q13 8 21 14.5t17.5 15.5t17.5 18q6 8 17 8t11 -10q0 -11 -14 -28zM217 520q0 21 -6 21q-17 0 -67 -134t-95 -297q71 78 119.5 216t48.5 194z" />
<glyph unicode="g" horiz-adv-x="313" d="M43 101q0 -20 8.5 -38.5t28.5 -18.5q17 0 38 21t35 53q7 21 26.5 35.5t36.5 14.5q18 0 18 -17q0 -7 -3 -14q-9 -25 -32 -104q77 54 114 95q8 8 17 8q12 0 12 -11q0 -9 -15 -27q-34 -42 -144 -120q-31 -120 -46 -198q-14 -72 -52.5 -114t-81.5 -42q-37 0 -56.5 29.5 t-19.5 70.5q0 62 49 127t136 123l14 56q-33 -30 -69 -30q-35 0 -60 26t-25 65q0 75 65.5 142t146.5 67q39 0 64 -15t25 -44q0 -33 -20.5 -47t-39.5 -14q-37 0 -37 17q0 5 8 8t16 9.5t8 19.5q0 28 -41 28q-53 0 -88.5 -57t-35.5 -104zM61 -122q-29 -30 -47.5 -73t-18.5 -81 q0 -29 9.5 -43.5t22.5 -14.5q20 0 36 73l35 174q-23 -20 -37 -35z" />
<glyph unicode="h" horiz-adv-x="323" d="M215 79q-4 -14 -4 -19q0 -14 10 -14q13 0 40.5 21.5t61.5 60.5q8 8 17 8q12 0 12 -10q0 -8 -15 -28q-39 -47 -78 -72.5t-67 -25.5q-54 0 -54 56q0 18 6 37q9 32 23 63t23 48.5t9 22.5q0 6 -6 6q-19 0 -71 -52t-62 -89l-11 -41q-6 -22 -25 -36.5t-36 -14.5q-18 0 -18 18 q0 7 2 13l82 293q35 127 97 227.5t97 100.5q23 0 23 -48q0 -96 -54 -206.5t-133 -201.5l-3 -14q36 48 89.5 83t88.5 35q28 0 28 -27q0 -19 -13 -46q-42 -87 -59 -148zM112 325l-11 -51q97 146 97 246q0 26 -7 26q-13 0 -36 -64t-43 -157z" />
<glyph unicode="i" horiz-adv-x="167" d="M118 227q-42 -91 -59 -148q-4 -14 -4 -20q0 -13 10 -13q13 0 40.5 21.5t61.5 60.5q7 8 17 8q12 0 12 -10q0 -12 -15 -28q-40 -47 -79 -72.5t-66 -25.5q-54 0 -54 56q0 18 6 37q12 41 51 123q5 12 5 14q0 4 -5 4q-1 0 -4 -0.5t-5 -0.5q-14 0 -14 10q0 16 34 36.5t70 20.5 q20 0 20 -15q0 -10 -22 -58zM138 451q17 0 28.5 -10t11.5 -27q0 -21 -18.5 -39t-42.5 -18q-17 0 -29 10.5t-12 26.5q0 22 19.5 39.5t42.5 17.5z" />
<glyph unicode="j" horiz-adv-x="168" d="M182 98q-35 -41 -156 -129q-29 -105 -45 -190q-14 -71 -52 -113.5t-81 -42.5q-35 0 -56 29t-21 69q0 112 166 232l18 13q37 153 74 250q4 12 4 14q0 4 -4 4q-1 0 -4 -0.5t-5 -0.5q-14 0 -14 10q0 15 33.5 36t66.5 21q17 0 17 -16q0 -7 -3 -16q-43 -123 -79 -244 q93 63 127 104q6 8 17 8q12 0 12 -11q0 -9 -15 -27zM-84 -122q-32 -32 -54 -76.5t-22 -81.5q0 -26 9 -40.5t21 -14.5q23 0 37 74q7 42 33 161q-15 -12 -24 -22zM125 451q17 0 28.5 -10t11.5 -27q0 -21 -18.5 -39t-42.5 -18q-17 0 -29 10.5t-12 26.5q0 22 19.5 39.5 t42.5 17.5z" />
<glyph unicode="k" horiz-adv-x="305" d="M272 604q0 -96 -54 -206t-133 -201l-5 -21q98 123 167 123q20 0 31 -10t11 -22q0 -22 -12 -46t-29 -41.5t-34 -32.5t-29 -23l-12 -7q-8 -5 -8 -8q0 -1 3 -16q10 -44 36 -44q33 0 101 79q8 8 17 8q12 0 12 -11q0 -9 -15 -27q-39 -46 -78.5 -72t-67.5 -26q-36 0 -54 34 t-18 60q0 19 25 38q78 62 78 93q0 12 -10 12q-5 0 -11 -3q-38 -19 -77 -68t-47 -77l-10 -38q-6 -22 -24.5 -36.5t-35.5 -14.5q-19 0 -19 18q0 3 2 13l82 293q35 126 97.5 226.5t97.5 101.5q23 0 23 -48zM113 325l-10 -48q96 144 96 243q0 26 -7 26q-13 0 -36.5 -65 t-42.5 -156z" />
<glyph unicode="l" horiz-adv-x="187" d="M239 604q0 -90 -56 -237.5t-120 -233.5q4 -80 30 -80q29 0 94 75q8 8 17 8q12 0 12 -11q0 -9 -15 -27q-83 -98 -138 -98q-35 0 -53 36t-18 90q0 86 26.5 184t63 171t74 122t60.5 49t23 -48zM70 264q-7 -47 -7 -76q31 57 56.5 137t36 131t10.5 64q0 23 -6 23 q-15 0 -45 -93t-45 -186z" />
<glyph unicode="m" horiz-adv-x="464" d="M61 97l-16 -46q-8 -22 -27.5 -36.5t-36.5 -14.5t-17 16q0 6 3 15l64 187q4 12 4 14q0 4 -4 4q-1 0 -4.5 -1t-5.5 -1q-13 0 -13 10q0 14 31 35t66 21q18 0 18 -17q0 -6 -3 -15l-20 -58q33 39 72.5 64.5t65.5 25.5q28 0 28 -32q0 -18 -8 -41l-8 -23q36 41 80 68.5t72 27.5 q27 0 27 -26q0 -17 -14 -47q-40 -82 -59 -148q-3 -11 -3 -19q0 -14 9 -14q32 0 102 82q8 8 17 8q12 0 12 -11q0 -9 -15 -27q-40 -47 -79 -72.5t-66 -25.5q-53 0 -53 55q-1 13 6 38q9 32 22.5 63t22.5 48.5t9 23.5q0 5 -4 5q-17 0 -63.5 -49.5t-59.5 -88.5l-15 -44 q-7 -22 -27 -36.5t-37 -14.5t-17 16q0 6 3 15l65 189q2 6 2 8q0 5 -5 5q-16 0 -62 -49.5t-59 -86.5z" />
<glyph unicode="n" horiz-adv-x="322" d="M214 79q-3 -11 -3 -19q0 -14 9 -14q32 0 102 82q8 8 17 8q12 0 12 -11q0 -9 -15 -27q-40 -47 -79 -72.5t-66 -25.5q-53 0 -53 55q0 17 6 38q9 32 22.5 63t22.5 48.5t9 22.5q0 6 -5 6q-19 0 -69.5 -49.5t-63.5 -88.5l-15 -44q-7 -22 -27 -36.5t-37 -14.5t-17 16q0 6 3 15 l64 187q4 12 4 14q0 4 -4 4q-1 0 -4 -0.5t-5 -0.5q-14 0 -14 10q0 14 31.5 34.5t65.5 20.5q17 0 17 -17q0 -6 -3 -15l-23 -67q37 42 84 70.5t78 28.5q29 0 29 -27q0 -16 -14 -46q-39 -80 -59 -148z" />
<glyph unicode="o" horiz-adv-x="313" d="M229 277q31 -30 31 -80q0 -54 -34 -103q5 -1 16 -1q40 0 71 35q6 8 17 8t11 -10q0 -11 -14 -28q-43 -50 -101 -50q-16 0 -34 5q-56 -53 -121 -53q-44 0 -69.5 29t-25.5 73q0 69 50 128q38 45 55 45q14 0 14 -17q0 -6 -4 -10q-44 -46 -44 -115q0 -38 16.5 -63.5 t42.5 -25.5q27 0 52 25q-31 19 -50 50.5t-19 69.5q0 41 23 76t64 35q30 0 53 -23zM158 251q-17 0 -25.5 -14t-8.5 -33q0 -27 17 -53t44 -42q12 30 12 64q0 32 -10 55t-29 23z" />
<glyph unicode="p" horiz-adv-x="338" d="M63 105l-134 -388q-8 -22 -27.5 -36.5t-36.5 -14.5t-17 16q0 6 3 15l179 521q4 12 4 14q0 4 -4 4q-1 0 -4.5 -1t-6.5 -1q-12 0 -12 10q0 15 31 35.5t66 20.5q18 0 18 -17q0 -6 -3 -15l-12 -34q55 66 112 66q36 0 56.5 -28t20.5 -62q0 -57 -39 -116q8 -1 14 -1q24 0 37 8 t30 27q6 8 17 8t11 -10q0 -11 -14 -28q-40 -47 -86 -47q-16 0 -37 7q-46 -58 -114 -58q-22 0 -36 10.5t-14 29.5q0 24 19.5 46.5t67.5 22.5q22 0 53 -6q17 42 17 85q0 60 -40 60q-29 0 -65 -45t-54 -98zM151 80q-16 0 -24.5 -9t-8.5 -21q0 -18 19 -18q27 0 52 39 q-29 9 -38 9z" />
<glyph unicode="q" horiz-adv-x="315" d="M329 98q-31 -36 -62 -60q15 -46 15 -93q0 -104 -59.5 -191.5t-112.5 -87.5q-51 0 -51 79q0 76 65 282q-33 -28 -66 -28q-35 0 -60.5 27t-25.5 66q0 72 63.5 140t147.5 68q39 0 64 -15.5t25 -44.5q0 -33 -20.5 -46.5t-39.5 -13.5q-36 0 -36 17q0 5 15.5 12.5t15.5 25.5 q0 27 -40 27q-51 0 -87.5 -55.5t-36.5 -106.5q0 -23 9 -39.5t27 -16.5q17 0 39 21t34 53q8 21 27.5 35.5t36.5 14.5t17 -16q0 -6 -3 -15q-107 -317 -107 -385q0 -34 18 -34q25 0 52.5 62t27.5 150q0 30 -3.5 51.5t-7.5 32t-4 12.5q0 14 16 23q46 23 93 79q6 8 17 8t11 -10 q0 -11 -14 -28z" />
<glyph unicode="r" horiz-adv-x="275" d="M0 128q12 13 48 61q-40 26 -40 69q0 44 30.5 74.5t63.5 30.5q20 0 32 -13t12 -32q0 -37 -28 -80q16 -4 81 -7q26 -2 26 -29q0 -12 -9 -20q-71 -71 -71 -110q0 -23 18 -23q19 0 50.5 22t61.5 57q6 8 17 8t11 -10q0 -11 -14 -28q-83 -98 -148 -98q-30 0 -47.5 19.5 t-17.5 44.5q0 47 57 97q-30 3 -58 14q-33 -45 -61 -77q-7 -8 -17 -8q-11 0 -11 11q0 10 14 27zM69 295q0 -25 19 -42q13 24 13 47q0 26 -12 26q-8 0 -14 -9.5t-6 -21.5z" />
<glyph unicode="s" horiz-adv-x="260" d="M0 128q19 22 64 80q-20 29 -20 57q0 42 37.5 76t72.5 34q31 0 31 -31q0 -33 -56 -104q1 -1 11 -13t12 -15.5t10.5 -14.5t11 -16t8.5 -15t8 -17t4 -16t2 -18q0 -15 -3 -25q35 1 67 38q6 8 17 8t11 -10q0 -11 -14 -28q-46 -55 -94 -55l-9 1q-37 -44 -108 -44 q-27 0 -48 13.5t-21 31.5q0 21 28 36.5t77 15.5q15 0 35 -2q0 6 -2 12l-4 11q-1 4 -5 11t-6 10t-8 11l-8 10q-2 3 -9.5 11.5t-8.5 10.5l-69 -84q-6 -8 -16 -8q-12 0 -12 11q0 10 14 27zM75 31q24 0 47 25q-32 8 -47 8q-25 0 -25 -15q0 -7 7 -12.5t18 -5.5zM99 298 q0 -13 9 -30q25 35 26 54q0 11 -7 11q-8 0 -18 -11t-10 -24z" />
<glyph unicode="t" horiz-adv-x="187" d="M327 425q16 0 16 -10t-13 -20.5t-29 -10.5h-112q-56 -156 -126 -251q4 -80 30 -80q29 0 94 75q8 8 17 8q12 0 12 -10q0 -12 -15 -28q-83 -98 -139 -98q-34 0 -52 36t-18 90q0 119 49 258h-65q-16 0 -16 10t13.5 20.5t29.5 10.5h54q38 95 85 160.5t74 65.5q23 0 23 -47 q0 -69 -36 -179h124zM95 384q-32 -117 -32 -196q43 76 75 196h-43zM166 520q0 23 -6 23q-18 0 -53 -118h41q18 75 18 95z" />
<glyph unicode="u" horiz-adv-x="329" d="M114 300q24 0 24 -18q0 -8 -4 -15l-30 -59q-25 -47 -36.5 -77t-11.5 -56t13 -26q21 0 64.5 58.5t79.5 137.5q12 25 32.5 39.5t36.5 14.5q19 0 19 -16q0 -7 -5 -18q-79 -182 -79 -205q0 -14 10 -14q30 0 102 82q6 8 17 8t11 -10q0 -11 -14 -28q-40 -47 -79 -72.5 t-67 -25.5q-48 0 -48 48q0 17 6 38q-62 -86 -119 -86q-22 0 -35.5 16.5t-13.5 47.5q0 52 51 154q5 10 5 13q0 4 -5 4q-1 0 -4 -0.5t-5 -0.5q-14 0 -14 10q0 15 32.5 35.5t66.5 20.5z" />
<glyph unicode="v" horiz-adv-x="288" d="M23 9q-23 35 -23 140q0 71 11 100q8 22 27.5 36.5t35.5 14.5q18 0 18 -17q0 -6 -3 -15q-22 -66 -22 -127q0 -46 9 -78q2 -8 6 -8q6 0 25.5 20t40.5 48q-32 56 -32 125q0 55 27 85t63 30q28 0 47 -19t19 -53q0 -64 -64 -155q23 -26 45 -26q19 0 35 18q8 8 17 8 q11 0 11 -10q0 -12 -14 -28q-34 -39 -68 -39q-33 0 -62 32q-77 -91 -128 -91q-16 0 -21 9zM185 323q-26 0 -26 -56q0 -45 23 -91q28 49 28 95q0 25 -7.5 38.5t-17.5 13.5z" />
<glyph unicode="w" horiz-adv-x="426" d="M161 9q-12 17 -18 56q-51 -65 -93 -65q-21 0 -27 9q-24 35 -24 138q0 69 12 102q8 20 26.5 35.5t36.5 15.5t18 -18q0 -6 -3 -14q-22 -66 -22 -127q0 -25 4 -55.5t11 -30.5q3 0 12.5 10.5t22 30.5t20.5 41v13q0 67 12 99q9 22 27.5 36.5t35.5 14.5q18 0 18 -18 q0 -6 -3 -14q-22 -66 -22 -127q0 -25 4 -55.5t11 -30.5q5 0 25 20t41 48q-32 57 -32 125q0 55 27 85t63 30q28 0 46.5 -18.5t18.5 -51.5q0 -65 -64 -156q22 -27 47 -27q20 0 34 18q7 8 17 8q11 0 11 -10t-14 -28q-34 -39 -68 -39t-63 32q-79 -91 -127 -91q-16 0 -21 9z M323 323q-26 0 -26 -56q0 -45 23 -91q28 54 28 96q0 25 -7.5 38t-17.5 13z" />
<glyph unicode="x" horiz-adv-x="314" d="M72 224q-1 8 -9 8q-3 0 -9.5 -4t-12.5 -4q-12 0 -12 12q0 17 27.5 40.5t49.5 23.5q20 0 26 -26q15 -60 19 -74l90 87q13 13 36 13q28 0 28 -14q0 -5 -6 -11l-133 -124q14 -41 31 -84q7 -18 20 -18q6 0 14 4q38 22 83 75q7 8 17 8q12 0 12 -10q0 -12 -15 -28 q-40 -47 -79 -72.5t-66 -25.5q-26 0 -39 20q-16 24 -36 77l-91 -85q-12 -12 -33 -12q-22 0 -22 12q0 5 7 12l124 120q-6 19 -21 80z" />
<glyph unicode="y" horiz-adv-x="326" d="M113 300q24 0 24 -19q0 -7 -3 -14l-24 -47l-27 -52q-10 -20 -18.5 -46.5t-8.5 -46.5q0 -27 14 -27q19 0 57 50t72 119q19 38 22 42q27 40 60 40q21 0 21 -17q0 -7 -4 -14q-55 -116 -90 -238q90 64 118 98q6 8 17 8t11 -10q0 -11 -14 -28q-32 -40 -147 -122 q-23 -90 -43 -196q-14 -72 -52.5 -114t-81.5 -42q-37 0 -56.5 30t-19.5 71q0 114 155 228l30 22q15 61 29 112q-62 -87 -119 -87q-22 0 -35.5 16.5t-13.5 47.5q0 42 51 154q5 12 5 13q0 4 -4 4q-1 0 -4 -1t-6 -1q-13 0 -13 11q0 13 20 27q40 29 78 29zM74 -122 q-30 -30 -48.5 -73t-18.5 -81q0 -30 10.5 -44t21.5 -14q13 0 20.5 17.5t15.5 55.5l36 173q-21 -16 -37 -34z" />
<glyph unicode="z" horiz-adv-x="318" d="M332 98q-33 -39 -136 -113q0 -72 -29 -161t-58 -135q-18 -28 -46 -47t-56 -19q-36 0 -55.5 30.5t-19.5 72.5q0 110 155 227q13 10 41 29v14q0 39 -14 59q-9 13 -9 16q0 9 18 21q25 16 55.5 54.5t30.5 74.5q0 22 -13 32.5t-32 10.5q-41 0 -81 -40q-32 -32 -32 -67 q0 -14 8 -25t19 -11q5 0 14.5 4t12.5 4q10 0 10 -9q0 -13 -21 -25.5t-45 -12.5q-28 0 -47.5 17t-19.5 50q0 42 43 87q62 64 153 64q43 0 71.5 -18t28.5 -57q0 -33 -25 -69q-37 -53 -81 -77q15 -23 21 -53q95 66 125 102q6 8 17 8t11 -10q0 -11 -14 -28zM65 -122 q-29 -30 -47.5 -73t-18.5 -81q0 -29 11 -44t22 -15q32 0 61 114q21 84 30 151q-39 -32 -58 -52z" />
<glyph unicode="{" d="M75 315l68 198q25 70 74 104t106 34h4q14 0 14 -10q0 -12 -23 -17q-18 -4 -46.5 -28t-39.5 -58l-75 -219q-10 -28 -37 -35q13 -10 13 -28q0 -7 -3 -16l-47 -136q-22 -66 -22 -97q0 -38 27 -68q6 -6 6 -13q0 -11 -11 -11q-4 0 -10 3q-35 15 -55 53.5t-20 85.5q0 34 11 67 l43 125q4 14 -11 14h-24q-16 0 -16 10t13.5 20.5t29.5 10.5h12q15 0 19 11z" />
<glyph unicode="|" horiz-adv-x="193" d="M-33 31l196 570q7 21 26 36t34 15q16 0 16 -16q0 -6 -3 -15l-196 -570q-8 -22 -26.5 -36.5t-33.5 -14.5q-16 0 -16 16q0 6 3 15z" />
<glyph unicode="}" d="M155 252l-67 -198q-23 -70 -73 -104t-103 -35q-22 0 -22 11q0 12 23 17q16 4 44 27t41 59l76 219q9 28 37 36q-13 8 -13 26q0 10 3 17l47 136q21 61 21 97q0 38 -27 68q-6 8 -6 13q0 11 12 11l6 -1q38 -15 58 -54t20 -87q0 -34 -11 -67l-43 -125q-4 -14 12 -14h24 q16 0 16 -10t-13.5 -20.5t-29.5 -10.5h-13q-15 0 -19 -11z" />
<glyph unicode="~" horiz-adv-x="340" d="M96 323q-19 0 -55 -19q-8 -4 -13 -4q-13 0 -13 11q0 20 34.5 41t58.5 21q32 0 78 -22t62 -22q25 0 55 19q7 4 13 4q12 0 12 -11q0 -20 -34 -41t-58 -21q-31 0 -77 22t-63 22z" />
<glyph unicode="&#xa1;" horiz-adv-x="207" d="M-51 -305q-6 -21 -30.5 -34t-49.5 -13q-36 0 -36 24q0 6 3 13l174 432q9 21 23.5 34t28.5 13q15 0 15 -17q0 -7 -3 -16zM64 199q-16 0 -27 8.5t-11 24.5q0 24 23.5 46t53.5 22q16 0 27 -9t11 -24q0 -25 -23.5 -46.5t-53.5 -21.5z" />
<glyph unicode="&#xa2;" horiz-adv-x="320" d="M291 248q5 -3 5 -10q0 -4 -4.5 -15t-16 -26t-27.5 -29t-42 -23.5t-56 -9.5l-15 1l-37 -107q-4 -12 -15.5 -20.5t-21.5 -8.5t-10 9q0 3 2 9l43 126q-82 29 -82 135q0 107 66 190t159 90l22 64q4 12 15.5 20.5t20.5 8.5q11 0 11 -10q0 -2 -2 -8l-26 -75q31 -4 55 -19.5 t24 -41.5q0 -21 -12.5 -35t-30.5 -14q-25 0 -25 15q0 8 10 14q8 5 8 15q0 11 -10.5 21.5t-29.5 13.5l-121 -353q7 -2 22 -2q32 0 57.5 21.5t36.5 42.5q7 13 19 13q4 0 8 -2zM94 343q-9 -33 -9 -67q0 -56 28 -83l114 331q-47 -14 -82.5 -68t-50.5 -113z" />
<glyph unicode="&#xa3;" horiz-adv-x="434" d="M96 253q-15 0 -15 9t12.5 19t27.5 10h19q14 37 16 44q-85 8 -85 70q0 32 19.5 54.5t37.5 22.5q13 0 13 -13q0 -5 -5.5 -19t-5.5 -23q0 -37 42 -47q10 30 19.5 51t26.5 47t43.5 45.5t61.5 30.5q17 6 36 6q57 0 57 -57q0 -53 -58.5 -106t-141.5 -62q-7 -17 -15 -44h80 q15 0 15 -9t-13 -19t-27 -10h-69l-18 -55q-4 -14 -22 -49q77 -29 127 -29t78 26q7 5 10 5q9 0 9 -10q0 -1 -2 -7q-29 -70 -122 -70q-18 0 -35 4.5t-26 8.5t-33 17t-34 18q-45 -48 -101 -48q-29 0 -50.5 15t-21.5 37q0 31 22 45.5t55 14.5t74 -11l30 88h-31zM237 395l-7 -20 q71 1 102.5 37t31.5 76q0 36 -32 36q-31 0 -52 -31.5t-43 -97.5zM5 119q0 -19 24 -19q33 0 53 30q-26 11 -46 11q-31 0 -31 -22z" />
<glyph unicode="&#xa4;" horiz-adv-x="520" d="M180 519q68 34 134 34q89 0 141 -52l94 70q10 7 17 7q12 0 12 -16q0 -19 -19 -34l-80 -59q25 -40 25 -91q0 -53 -26.5 -105t-75.5 -92l19 -28q8 -12 8 -30q0 -17 -7.5 -29.5t-17.5 -12.5t-17 12l-36 54q-67 -36 -139 -36q-88 0 -143 55l-94 -70q-10 -7 -17 -7 q-12 0 -12 15q0 21 20 35l79 58q-23 39 -23 88q0 53 27.5 106t77.5 93l-19 30q-8 12 -8 29t8 30.5t18 13.5q9 0 17 -11zM435 373q0 61 -37 101.5t-103 40.5q-75 0 -138.5 -61.5t-63.5 -149.5q0 -66 38 -110t104 -44q73 0 136.5 67.5t63.5 155.5z" />
<glyph unicode="&#xa5;" horiz-adv-x="496" d="M163 185q-15 0 -15 9q0 10 12.5 20t27.5 10h99l44 128q-70 -105 -130 -105q-26 0 -42 19.5t-16 45.5q0 11 6 31q3 13 44 117q8 22 8 37q0 27 -21 27q-32 0 -61.5 -44.5t-29.5 -72.5q0 -17 14.5 -22t14.5 -11q0 -9 -9.5 -17.5t-25.5 -8.5q-17 0 -30 14t-13 38 q0 49 49.5 104.5t106.5 55.5q67 0 67 -55q0 -19 -9 -46l-22 -55q-13 -33 -19 -51.5t-6 -31.5q0 -24 17 -24q28 0 77.5 59t81.5 146q22 58 59 58q16 0 16 -13q0 -2 -2 -10l-108 -313h85q15 0 15 -10q0 -9 -13 -19t-27 -10h-73l-6 -17q39 -2 61 -16.5t22 -35.5 q0 -13 -10.5 -29t-21.5 -16q-9 0 -9 10q0 2 0.5 6t0.5 6q0 37 -55 42q-24 -71 -66.5 -103t-84.5 -32q-29 0 -46.5 14.5t-17.5 36.5q0 39 50.5 69t113.5 42l8 23h-111zM165 64q0 -11 8 -18.5t18 -7.5q12 0 26.5 12t22.5 35l15 45q-38 -9 -64 -27t-26 -39z" />
<glyph unicode="&#xa6;" horiz-adv-x="193" d="M88 382l75 219q7 21 26 36t34 15q17 0 17 -17q0 -5 -3 -14l-76 -219q-8 -22 -26.5 -36.5t-33.5 -14.5q-16 0 -16 16q0 6 3 15zM-33 31l75 219q7 21 26 36t34 15q17 0 17 -17q0 -6 -3 -15l-76 -218q-8 -22 -26.5 -36.5t-33.5 -14.5q-16 0 -16 16q0 6 3 15z" />
<glyph unicode="&#xa7;" horiz-adv-x="454" d="M0 259q0 64 41.5 111t109.5 65q-26 28 -26 58q0 74 61.5 116.5t152.5 42.5q66 0 104.5 -29t38.5 -69q0 -29 -31.5 -62.5t-92.5 -33.5q-23 0 -23 14t23 17q30 4 43.5 20.5t13.5 37.5q0 30 -23.5 47.5t-66.5 17.5q-35 0 -78 -26.5t-43 -70.5q0 -18 21.5 -36.5t52 -36.5 t61.5 -39.5t52.5 -55.5t21.5 -75q0 -67 -43.5 -113t-107.5 -62q25 -28 25 -58q0 -72 -60 -115.5t-153 -43.5q-66 0 -104 28.5t-38 68.5q0 31 30.5 64t93.5 33q22 0 22 -15q0 -13 -22 -16q-58 -8 -58 -58q0 -30 23.5 -47.5t67.5 -17.5q33 0 76.5 26.5t43.5 69.5 q0 19 -21.5 37.5t-52.5 36.5t-61.5 39.5t-52 55t-21.5 74.5zM78 302v-9q0 -27 9 -49t27.5 -39.5t34.5 -29t42 -27.5q7 -4 10 -6h8q54 0 90 23t36 74q0 35 -19 64t-39 44t-56 37q-7 4 -10 6q-54 0 -92 -20.5t-41 -67.5z" />
<glyph unicode="&#xa8;" d="M336 794q12 0 21.5 -7t9.5 -20q0 -18 -20.5 -36.5t-42.5 -18.5q-13 0 -22 7.5t-9 19.5q0 20 20 37.5t43 17.5zM216 794q12 0 21.5 -7t9.5 -20q0 -18 -20.5 -36.5t-42.5 -18.5q-13 0 -22 7.5t-9 19.5q0 20 20 37.5t43 17.5z" />
<glyph unicode="&#xa9;" horiz-adv-x="430" d="M107 308q-43 44 -43 111q0 91 73 162t163 71q70 0 114.5 -44t44.5 -113q0 -92 -71.5 -163t-163.5 -71q-73 0 -117 47zM365 358q46 56 46 128q0 60 -34.5 99t-88.5 39q-67 0 -121.5 -59.5t-54.5 -138.5q0 -57 34.5 -97.5t88.5 -40.5q75 0 130 70zM298 557 q-30 0 -64.5 -43.5t-34.5 -85.5q0 -23 15.5 -43t43.5 -20q41 0 87 57q3 5 10 5q10 0 10 -11q0 -5 -4 -12q-21 -33 -54.5 -53t-66.5 -20q-39 0 -62.5 28t-23.5 66q0 55 46.5 106t97.5 51q24 0 40.5 -14.5t16.5 -38.5q0 -22 -17 -37t-38 -15q-15 0 -15 10q0 5 8.5 9t17 12.5 t8.5 25.5q0 11 -6.5 17t-14.5 6z" />
<glyph unicode="&#xaa;" horiz-adv-x="293" d="M256 561q0 7 8 8q23 5 23 29q0 14 -9.5 22.5t-25.5 8.5q-22 0 -47.5 -18.5t-43.5 -45.5q-31 -46 -31 -88q0 -22 10.5 -37t28.5 -15q41 0 65 68q7 21 20.5 32t26.5 11q17 0 17 -14q0 -5 -1 -8l-17 -51q-6 -14 -6 -23q0 -13 11 -13q9 0 25 11q7 5 13 5q8 0 8 -7 q0 -8 -9 -14q-35 -25 -61 -25q-40 0 -43 28q-29 -28 -66 -28q-31 0 -52 21.5t-21 53.5q0 55 46 110q58 69 135 69q32 0 52.5 -12.5t20.5 -35.5q0 -26 -17 -39.5t-35 -13.5q-25 0 -25 11z" />
<glyph unicode="&#xab;" horiz-adv-x="375" d="M244 272l-121 -133l33 -122q2 -8 2 -11q0 -10 -11 -10q-9 0 -16 11l-70 107q-6 9 -6 20q0 23 21 39l151 119q6 4 11 4q12 0 12 -11q0 -7 -6 -13zM357 272l-121 -133l33 -122q2 -8 2 -12q0 -9 -11 -9q-9 0 -16 11l-69 107q-6 9 -6 21q0 21 20 38l152 119q6 4 11 4 q11 0 11 -11q0 -7 -6 -13z" />
<glyph unicode="&#xad;" horiz-adv-x="237" d="M177 195q15 0 15 -11t-14.5 -24t-30.5 -13h-139q-15 0 -15 11t14 24t30 13h140z" />
<glyph unicode="&#xae;" horiz-adv-x="430" d="M107 308q-43 44 -43 111q0 90 72.5 161.5t163.5 71.5q70 0 114.5 -44t44.5 -113q0 -92 -71.5 -163t-163.5 -71q-73 0 -117 47zM365 358q46 56 46 128q0 58 -33.5 98t-89.5 40q-68 0 -121.5 -59.5t-53.5 -137.5q0 -58 34 -98.5t88 -40.5q75 0 130 70zM324 349q3 -5 3 -9 q0 -9 -13 -9q-39 0 -52 73q-2 10 -2 12q0 12 16 17q48 18 50 74q0 25 -15 38.5t-37 13.5q-28 0 -52 -17t-24 -40q0 -8 6 -12q8 -4 8 -10q0 -12 -19 -12q-13 0 -23 9t-10 25q0 32 36 56t82 24q42 0 67 -19.5t25 -56.5q0 -33 -20.5 -58t-49.5 -36q8 -41 24 -63zM219 353 q-8 -22 -31 -22q-14 0 -14 11q0 2 2 8l61 178q3 10 13 16t18 6q13 0 13 -11q0 -5 -1 -8z" />
<glyph unicode="&#xaf;" d="M355 761q15 0 15 -11q0 -12 -14 -24.5t-30 -12.5h-138q-15 0 -15 11q0 12 14 24.5t31 12.5h137z" />
<glyph unicode="&#xb0;" d="M230 653q36 0 60 -21.5t24 -56.5q0 -45 -39.5 -81.5t-89.5 -36.5q-36 0 -60.5 21.5t-24.5 55.5q0 45 39.5 82t90.5 37zM260 569q0 21 -11 36.5t-31 15.5q-23 0 -42.5 -22t-19.5 -54q0 -24 11.5 -40t31.5 -16q22 0 41.5 24.5t19.5 55.5z" />
<glyph unicode="&#xb2;" horiz-adv-x="340" d="M284 332q3 2 9 2q13 0 13 -11t-22 -51q-7 -12 -32 -12q-11 0 -48 5t-61 5q-23 0 -49.5 -5.5t-32.5 -5.5q-17 0 -17 21q0 36 73 86q118 80 153 116t35 77q0 30 -15.5 45t-40.5 15q-42 0 -64.5 -39t-22.5 -72q0 -21 12.5 -31.5t12.5 -14.5q0 -12 -14 -12q-31 0 -49 16 t-18 43q0 58 49.5 100.5t106.5 42.5q107 0 107 -94q0 -32 -13.5 -60t-42.5 -52.5t-49 -37.5t-56 -34q-99 -57 -111 -67q34 13 82 13q7 0 17 -0.5t15 -0.5q52 0 73 13z" />
<glyph unicode="&#xb3;" horiz-adv-x="310" d="M144 579q-6 -3 -10 -3q-11 0 -11 9q0 16 26 46q11 12 33 12h143q19 0 19 -17q0 -14 -17 -31l-106 -106h4q27 0 51 -17.5t24 -54.5q0 -21 -8 -46t-25 -51t-49 -43t-73 -17q-42 0 -70.5 22.5t-28.5 57.5q0 39 24 59.5t48 20.5q31 0 31 -17q0 -6 -12 -11q-13 -5 -24 -18.5 t-11 -33.5q0 -24 12.5 -37t29.5 -13q42 0 70 45.5t28 87.5q0 39 -30 39q-8 0 -18 -4q-20 -10 -23 -10q-6 0 -11 4.5t-5 11.5q0 9 8 17l108 108h-84q-23 0 -43 -10z" />
<glyph unicode="&#xb4;" d="M188 698q-6 -2 -9 -2q-11 0 -11 11q0 15 18 26l151 91q5 4 12 4q13 0 13 -14q0 -1 -0.5 -2.5t-0.5 -2.5l-15 -42q-5 -16 -22 -22z" />
<glyph unicode="&#xb6;" horiz-adv-x="503" d="M40 -71q-19 0 -19 11q0 12 23 17q20 5 47 28.5t38 57.5l90 259q-18 -2 -31 -2q-56 0 -90 38.5t-34 103.5q0 32 13.5 66.5t40.5 67.5t77 54.5t115 21.5q42 0 107.5 -16t101.5 -33q9 -4 9 -15q0 -6 -3 -14l-161 -467q-32 -94 -85 -136t-107 -42q-19 0 -19 11q0 12 23 17 q20 5 47.5 29t38.5 57l179 522q-104 51 -162 51q-65 0 -108.5 -36t-43.5 -108q0 -51 31.5 -87.5t75.5 -38.5l58 168q7 21 28.5 36t39.5 15q21 0 21 -19q0 -8 -2 -13l-147 -426q-32 -94 -85 -136t-107 -42z" />
<glyph unicode="&#xb7;" horiz-adv-x="149" d="M84 385q22 0 36 -12.5t14 -33.5q0 -27 -24 -49.5t-54 -22.5q-21 0 -35.5 13t-14.5 33q0 27 24.5 49.5t53.5 22.5z" />
<glyph unicode="&#xb8;" d="M8 21h29l-15 -43q9 3 19 3q17 0 29 -9.5t12 -28.5q0 -27 -23.5 -42.5t-52.5 -15.5q-16 0 -29 5.5t-13 15.5q0 12 11 12q3 0 12 -4t19 -4q16 0 26.5 9t10.5 19q0 15 -18 15q-7 0 -15 -3t-11 -3q-12 0 -12 10q0 1 2 7z" />
<glyph unicode="&#xb9;" horiz-adv-x="233" d="M209 633q19 19 38 19q18 0 18 -15q0 -2 -2 -8l-116 -337q-5 -14 -19 -23t-27 -9q-18 0 -18 14q0 5 2 9l33 93l44 128q19 56 22 64q-27 -20 -41 -20q-16 0 -16 15q0 6 7 12q64 47 75 58z" />
<glyph unicode="&#xba;" horiz-adv-x="297" d="M348 497q-28 -14 -51 -17q-25 -40 -61.5 -62t-70.5 -22q-36 0 -59 24t-23 61q0 56 46 110q31 37 47 37q9 0 9 -10q0 -5 -4 -8q-49 -40 -49 -109q0 -33 14.5 -53.5t43.5 -20.5q20 0 39 14t30 38q-32 5 -52 30.5t-20 59.5q0 36 19.5 59.5t47.5 23.5q31 0 51 -25.5t20 -61.5 q0 -27 -12 -55q9 1 22.5 4t16.5 3q9 0 9 -6q0 -7 -13 -14zM210 579q0 -25 17 -43t43 -24q5 25 5 43q0 24 -11.5 41t-26.5 17q-27 0 -27 -34z" />
<glyph unicode="&#xbb;" horiz-adv-x="375" d="M118 18l121 133l-33 122q-2 8 -2 11q0 10 11 10q9 0 16 -11l70 -107q6 -9 6 -20q0 -23 -21 -39l-151 -119q-6 -4 -11 -4q-12 0 -12 11q0 7 6 13zM5 18l121 133l-33 122q-2 8 -2 12q0 9 11 9q9 0 16 -11l69 -107q6 -9 6 -21q0 -21 -20 -38l-152 -119q-6 -4 -11 -4 q-11 0 -11 11q0 7 6 13z" />
<glyph unicode="&#xbc;" horiz-adv-x="580" d="M393 32q-5 -14 -18.5 -23t-25.5 -9q-15 0 -15 13q0 2 2 10q24 71 27 79q-54 4 -79 4q-32 0 -55 -4t-26 -4q-18 0 -18 15q0 11 13 22q118 101 166 231q10 26 47 26q24 0 24 -14q0 -3 -8 -23q-53 -126 -168 -208q40 8 70 8h19h33q12 31 29.5 84.5t23.5 68.5t18.5 23.5 t25.5 8.5q16 0 16 -14q0 -3 -2 -9q-52 -150 -55 -160q14 2 23.5 4.5t13 4t6.5 3t6 1.5q12 0 12 -12t-21 -49q-8 -12 -45 -12h-16zM4 20l413 613q13 19 44 19q21 0 21 -11q0 -5 -3 -9l-413 -613q-13 -19 -45 -19q-21 0 -21 11q0 4 4 9zM200 633q19 19 38 19q18 0 18 -15 q0 -2 -2 -8l-116 -337q-5 -14 -19 -23t-27 -9q-18 0 -18 14q0 5 2 9l32 93l44 128l23 64q-27 -20 -41 -20q-16 0 -16 15q0 6 7 12q64 47 75 58z" />
<glyph unicode="&#xbd;" horiz-adv-x="620" d="M4 20l414 613q13 19 44 19q20 0 20 -11q0 -5 -3 -9l-413 -613q-13 -19 -44 -19q-21 0 -21 11q0 5 3 9zM200 633q19 19 38 19q18 0 18 -15q0 -2 -2 -8l-116 -337q-5 -14 -19 -23t-27 -9q-18 0 -18 14q0 5 2 9l32 93l44 128l23 64q-27 -20 -41 -20q-16 0 -16 15q0 6 7 12 q64 47 75 58zM471 72q3 2 9 2q13 0 13 -11t-22 -51q-7 -12 -32 -12q-11 0 -48 5t-61 5q-23 0 -49.5 -5.5t-32.5 -5.5q-17 0 -17 21q0 36 73 86q118 80 153 116t35 77q0 30 -15.5 45t-40.5 15q-42 0 -64.5 -39t-22.5 -72q0 -21 12.5 -31.5t12.5 -14.5q0 -12 -14 -12 q-31 0 -49 16t-18 43q0 58 49.5 100.5t106.5 42.5q107 0 107 -94q0 -32 -13.5 -60t-42.5 -52.5t-49 -37.5t-56 -34q-99 -57 -111 -67q34 13 82 13q8 0 18 -0.5t14 -0.5q52 0 73 13z" />
<glyph unicode="&#xbe;" horiz-adv-x="688" d="M112 20l413 613q13 19 44 19q21 0 21 -11q0 -5 -3 -9l-413 -613q-13 -19 -44 -19q-21 0 -21 11q0 5 3 9zM144 579q-6 -3 -10 -3q-11 0 -11 9q0 16 26 46q11 12 33 12h143q19 0 19 -17q0 -14 -17 -31l-106 -106h4q27 0 51 -17.5t24 -54.5q0 -21 -8 -46t-25 -51t-49 -43 t-73 -17q-42 0 -70.5 22.5t-28.5 57.5q0 39 24 59.5t48 20.5q31 0 31 -17q0 -6 -12 -11q-13 -5 -24 -18.5t-11 -33.5q0 -24 12.5 -37t29.5 -13q42 0 70 45.5t28 87.5q0 39 -30 39q-8 0 -18 -4q-20 -10 -23 -10q-6 0 -11 4.5t-5 11.5q0 9 8 17l108 108h-84q-23 0 -43 -10z M501 32q-5 -14 -18.5 -23t-25.5 -9q-15 0 -15 13q0 2 2 10q24 71 27 79q-54 4 -79 4q-32 0 -55 -4t-26 -4q-18 0 -18 15q0 11 13 22q118 101 166 231q10 26 47 26q24 0 24 -14q0 -3 -8 -23q-53 -126 -168 -208q40 8 70 8h19h33q12 31 29.5 84.5t23.5 68.5t18.5 23.5 t25.5 8.5q16 0 16 -14q0 -3 -2 -9q-52 -150 -55 -160q14 2 23.5 4.5t13 4t6.5 3t6 1.5q12 0 12 -12t-21 -49q-8 -12 -45 -12h-16z" />
<glyph unicode="&#xbf;" horiz-adv-x="313" d="M161 -87q21 9 43 9q39 0 61.5 -30t22.5 -69q0 -76 -75 -125.5t-174 -49.5q-97 0 -148 44t-51 110q0 23 5.5 43.5t12.5 36t21.5 30.5t24.5 24.5t30 21.5l31 18l33 16l32 15q41 21 59 73l15 43q7 20 24 30.5t35 10.5q27 0 27 -20q0 -2 -2 -10l-12 -34q-19 -53 -42.5 -79 t-62.5 -47q-69 -39 -103 -77t-34 -106q0 -49 32 -76.5t77 -27.5q68 0 112.5 40.5t44.5 93.5q0 20 -11 35.5t-28 17.5q-19 2 -19 16q0 15 19 23zM167 199q-16 0 -27 8.5t-11 24.5q0 24 23.5 46t53.5 22q16 0 27 -9t11 -24q0 -25 -23.5 -46.5t-53.5 -21.5z" />
<glyph unicode="&#xc0;" horiz-adv-x="566" d="M519 251l-52 -150q-7 -23 -7 -45q0 -73 42 -105q9 -7 9 -13q0 -9 -12 -9q-4 0 -6 1q-49 12 -78.5 53.5t-29.5 88.5q0 24 7 42l40 119h-227l-62 -182q-7 -22 -28.5 -36.5t-40.5 -14.5q-21 0 -21 17q0 7 3 14l69 202h-46q-16 0 -16 10t13.5 21t29.5 11h34l8 23 q67 195 223 296q-42 25 -96 25q-50 0 -103 -24t-92.5 -74.5t-39.5 -113.5q0 -28 11.5 -44.5t25 -20t25 -9t11.5 -13.5q0 -21 -54 -21q-43 0 -74 29t-31 79q0 106 101 175t230 69q74 0 134 -30q65 31 116 31q22 0 22 -15q0 -6 -4 -10t-12.5 -7.5t-18.5 -6.5t-26 -9.5 t-31 -13.5q81 -70 81 -191q0 -70 -27 -148zM234 315l-14 -40h226q21 76 21 132q0 93 -55 154q-120 -78 -178 -246zM535 726q9 -8 9 -16q0 -14 -13 -14q-2 0 -10 3l-8 3l-131 48q-14 6 -14 17q0 5 2 11l12 36q5 14 16 14q5 0 13 -5z" />
<glyph unicode="&#xc1;" horiz-adv-x="566" d="M519 251l-52 -150q-7 -23 -7 -45q0 -73 42 -105q9 -7 9 -13q0 -9 -12 -9q-4 0 -6 1q-49 12 -78.5 53.5t-29.5 88.5q0 24 7 42l40 119h-227l-62 -182q-7 -22 -28.5 -36.5t-40.5 -14.5q-21 0 -21 17q0 7 3 14l69 202h-46q-16 0 -16 10t13.5 21t29.5 11h34l8 23 q67 195 223 296q-42 25 -96 25q-50 0 -103 -24t-92.5 -74.5t-39.5 -113.5q0 -28 11.5 -44.5t25 -20t25 -9t11.5 -13.5q0 -21 -54 -21q-43 0 -74 29t-31 79q0 106 101 175t230 69q74 0 134 -30q65 31 116 31q22 0 22 -15q0 -6 -4 -10t-12.5 -7.5t-18.5 -6.5t-26 -9.5 t-31 -13.5q81 -70 81 -191q0 -70 -27 -148zM234 315l-14 -40h226q21 76 21 132q0 93 -55 154q-120 -78 -178 -246zM379 698q-6 -2 -9 -2q-11 0 -11 11q0 15 18 26l151 91q5 4 12 4q13 0 13 -14q0 -1 -0.5 -2.5t-0.5 -2.5l-15 -42q-5 -16 -22 -22z" />
<glyph unicode="&#xc2;" horiz-adv-x="566" d="M519 251l-52 -150q-7 -23 -7 -45q0 -73 42 -105q9 -7 9 -13q0 -9 -12 -9q-4 0 -6 1q-49 12 -78.5 53.5t-29.5 88.5q0 24 7 42l40 119h-227l-62 -182q-7 -22 -28.5 -36.5t-40.5 -14.5q-21 0 -21 17q0 7 3 14l69 202h-46q-16 0 -16 10t13.5 21t29.5 11h34l8 23 q67 195 223 296q-42 25 -96 25q-50 0 -103 -24t-92.5 -74.5t-39.5 -113.5q0 -28 11.5 -44.5t25 -20t25 -9t11.5 -13.5q0 -21 -54 -21q-43 0 -74 29t-31 79q0 106 101 175t230 69q74 0 134 -30q65 31 116 31q22 0 22 -15q0 -6 -4 -10t-12.5 -7.5t-18.5 -6.5t-26 -9.5 t-31 -13.5q81 -70 81 -191q0 -70 -27 -148zM234 315l-14 -40h226q21 76 21 132q0 93 -55 154q-120 -78 -178 -246zM518 705l-50 51l-107 -56q-6 -3 -11 -3q-11 0 -11 10q0 11 12 21l111 89q15 11 26 11t17 -13l39 -96q2 -6 2 -8q0 -15 -13 -15q-6 0 -15 9z" />
<glyph unicode="&#xc3;" horiz-adv-x="566" d="M519 251l-52 -150q-7 -23 -7 -45q0 -73 42 -105q9 -7 9 -13q0 -9 -12 -9q-4 0 -6 1q-49 12 -78.5 53.5t-29.5 88.5q0 24 7 42l40 119h-227l-62 -182q-7 -22 -28.5 -36.5t-40.5 -14.5q-21 0 -21 17q0 7 3 14l69 202h-46q-16 0 -16 10t13.5 21t29.5 11h34l8 23 q67 195 223 296q-42 25 -96 25q-50 0 -103 -24t-92.5 -74.5t-39.5 -113.5q0 -28 11.5 -44.5t25 -20t25 -9t11.5 -13.5q0 -21 -54 -21q-43 0 -74 29t-31 79q0 106 101 175t230 69q74 0 134 -30q65 31 116 31q22 0 22 -15q0 -6 -4 -10t-12.5 -7.5t-18.5 -6.5t-26 -9.5 t-31 -13.5q81 -70 81 -191q0 -70 -27 -148zM234 315l-14 -40h226q21 76 21 132q0 93 -55 154q-120 -78 -178 -246zM492 697q-16 0 -47 19t-40 19q-13 0 -24 -12q-6 -7 -15 -7q-12 0 -12 10q0 8 5 15q23 37 55 37q16 0 47 -19.5t41 -19.5q13 0 23 12q6 7 15 7q11 0 11 -10 q0 -11 -17 -31t-42 -20z" />
<glyph unicode="&#xc4;" horiz-adv-x="566" d="M519 251l-52 -150q-7 -23 -7 -45q0 -73 42 -105q9 -7 9 -13q0 -9 -12 -9q-4 0 -6 1q-49 12 -78.5 53.5t-29.5 88.5q0 24 7 42l40 119h-227l-62 -182q-7 -22 -28.5 -36.5t-40.5 -14.5q-21 0 -21 17q0 7 3 14l69 202h-46q-16 0 -16 10t13.5 21t29.5 11h34l8 23 q67 195 223 296q-42 25 -96 25q-50 0 -103 -24t-92.5 -74.5t-39.5 -113.5q0 -28 11.5 -44.5t25 -20t25 -9t11.5 -13.5q0 -21 -54 -21q-43 0 -74 29t-31 79q0 106 101 175t230 69q74 0 134 -30q65 31 116 31q22 0 22 -15q0 -6 -4 -10t-12.5 -7.5t-18.5 -6.5t-26 -9.5 t-31 -13.5q81 -70 81 -191q0 -70 -27 -148zM234 315l-14 -40h226q21 76 21 132q0 93 -55 154q-120 -78 -178 -246zM527 794q12 0 21.5 -7t9.5 -20q0 -18 -20.5 -36.5t-42.5 -18.5q-13 0 -22 7.5t-9 19.5q0 20 20 37.5t43 17.5zM407 794q12 0 21.5 -7t9.5 -20 q0 -18 -20.5 -36.5t-42.5 -18.5q-13 0 -22 7.5t-9 19.5q0 20 20 37.5t43 17.5z" />
<glyph unicode="&#xc5;" horiz-adv-x="566" d="M519 251l-52 -150q-7 -23 -7 -45q0 -73 42 -105q9 -7 9 -13q0 -9 -12 -9q-4 0 -6 1q-49 12 -78.5 53.5t-29.5 88.5q0 24 7 42l40 119h-227l-62 -182q-7 -22 -28.5 -36.5t-40.5 -14.5q-21 0 -21 17q0 7 3 14l69 202h-46q-16 0 -16 10t13.5 21t29.5 11h34l8 23 q67 195 223 296q-42 25 -96 25q-50 0 -103 -24t-92.5 -74.5t-39.5 -113.5q0 -28 11.5 -44.5t25 -20t25 -9t11.5 -13.5q0 -21 -54 -21q-43 0 -74 29t-31 79q0 106 101 175t230 69q74 0 134 -30q65 31 116 31q22 0 22 -15q0 -6 -4 -10t-12.5 -7.5t-18.5 -6.5t-26 -9.5 t-31 -13.5q81 -70 81 -191q0 -70 -27 -148zM234 315l-14 -40h226q21 76 21 132q0 93 -55 154q-120 -78 -178 -246zM487 834q26 0 44 -15.5t18 -41.5q0 -33 -29.5 -60t-65.5 -27q-26 0 -44 16t-18 41q0 32 29 59.5t66 27.5zM503 770q0 33 -27 33q-14 0 -26 -14t-12 -33 q0 -15 7.5 -25t19.5 -10q13 0 25.5 15t12.5 34z" />
<glyph unicode="&#xc6;" horiz-adv-x="855" d="M63 43l66 191h-48q-16 0 -16 10t13.5 20.5t29.5 10.5h35l8 23q66 193 220 294q-40 27 -94 27q-50 0 -103 -24t-92.5 -74t-39.5 -113q0 -61 56 -72q17 -3 17 -15q0 -21 -54 -21q-43 0 -74 28.5t-31 79.5q0 71 49 128t124 86.5t158 29.5q78 0 133 -32q65 32 118 32 q23 0 23 -15q0 -12 -17 -17q-32 -10 -82 -33q42 -42 54 -108q60 75 134.5 124t144.5 49q59 0 99.5 -33.5t40.5 -90.5q0 -71 -65.5 -134.5t-152.5 -63.5q-23 0 -40 6t-17 14q0 9 19 13q69 16 119 67t50 125q0 62 -50 62q-72 0 -167 -107.5t-136 -234.5h204q16 0 16 -10 t-13.5 -20.5t-29.5 -10.5h-189q-10 -39 -10 -80q0 -66 33 -115t99 -49q48 0 99 24q48 22 81 47t70 67q3 3 9 11t10 12q10 10 16 10q11 0 11 -15q0 -9 -11 -23l-21 -25q-76 -89 -168 -133q-74 -36 -139 -36q-84 0 -140 67q-44 52 -44 142q0 45 12 96h-180l-44 -127 q-32 -94 -85 -137q-52 -41 -105 -41h-2q-19 0 -19 11q0 12 23 17q20 5 47 29t38 57zM431 366q9 38 9 74q0 68 -33 116q-110 -75 -169 -241l-14 -40h178q27 84 29 91z" />
<glyph unicode="&#xc7;" horiz-adv-x="452" d="M487 123l-21 -25q-64 -73 -131 -113q-90 -52 -164 -56l-7 -22q9 3 19 3q17 0 29 -9.5t12 -28.5q0 -27 -23.5 -42.5t-52.5 -15.5q-16 0 -29 5.5t-13 15.5q0 12 11 12q3 0 12 -4t19 -4q16 0 26.5 9t10.5 19q0 15 -18 15q-7 0 -15 -3t-11 -3q-12 0 -12 10q0 1 2 7l12 37 q-65 6 -116 57q-52 55 -52 150q0 127 86.5 269t212.5 213q58 33 118 33q59 0 99.5 -33.5t40.5 -89.5q0 -71 -66 -135t-153 -64q-53 0 -53 19q0 10 16 14q69 16 119 67t50 125q0 62 -50 62q-59 0 -136 -74t-133 -185t-56 -204q0 -66 33 -115t99 -49q48 0 99 24q53 25 84 48.5 t67 65.5q3 3 9 11t10 12q6 9 16 9q11 0 11 -13q0 -12 -11 -24z" />
<glyph unicode="&#xc8;" horiz-adv-x="385" d="M446 726q9 -8 9 -16q0 -14 -13 -14q-2 0 -10 3l-8 3l-131 48q-14 6 -14 17q0 5 2 11l12 36q5 14 16 14q5 0 13 -5zM-16 -6q-11 21 -11 51q0 73 62 133l2 2q-69 52 -69 134q0 111 119 223q57 53 129.5 84t127.5 31q50 0 83.5 -31t33.5 -87q0 -76 -63.5 -140t-151.5 -64 q-23 0 -40 6t-17 14q0 9 19 13q87 20 134.5 73t47.5 105q0 31 -17 50.5t-48 19.5q-51 0 -112.5 -45.5t-105.5 -117t-44 -138.5q0 -56 26 -91q67 39 124 39q28 0 44.5 -11.5t16.5 -32.5q0 -29 -29.5 -50t-91.5 -21q-33 0 -61 9l-1 -1q-32 -47 -32 -92q0 -68 77 -68 q47 0 97 23q54 25 85.5 49t66.5 65q3 3 9 11t10 12q9 9 16 9q11 0 11 -14q0 -9 -11 -23l-21 -25q-47 -55 -88 -84q-118 -85 -215 -85q-80 0 -112 65zM209 209q0 14 -17 14q-28 0 -67 -34q22 -11 40 -11q19 0 31.5 9.5t12.5 21.5z" />
<glyph unicode="&#xc9;" horiz-adv-x="385" d="M290 698q-6 -2 -9 -2q-11 0 -11 11q0 15 18 26l151 91q5 4 12 4q13 0 13 -14q0 -1 -0.5 -2.5t-0.5 -2.5l-15 -42q-5 -16 -22 -22zM-16 -6q-11 21 -11 51q0 73 62 133l2 2q-69 52 -69 134q0 111 119 223q57 53 129.5 84t127.5 31q50 0 83.5 -31t33.5 -87q0 -76 -63.5 -140 t-151.5 -64q-23 0 -40 6t-17 14q0 9 19 13q87 20 134.5 73t47.5 105q0 31 -17 50.5t-48 19.5q-51 0 -112.5 -45.5t-105.5 -117t-44 -138.5q0 -56 26 -91q67 39 124 39q28 0 44.5 -11.5t16.5 -32.5q0 -29 -29.5 -50t-91.5 -21q-33 0 -61 9l-1 -1q-32 -47 -32 -92 q0 -68 77 -68q47 0 97 23q54 25 85.5 49t66.5 65q3 3 9 11t10 12q9 9 16 9q11 0 11 -14q0 -9 -11 -23l-21 -25q-47 -55 -88 -84q-118 -85 -215 -85q-80 0 -112 65zM209 209q0 14 -17 14q-28 0 -67 -34q22 -11 40 -11q19 0 31.5 9.5t12.5 21.5z" />
<glyph unicode="&#xca;" horiz-adv-x="385" d="M429 705l-50 51l-107 -56q-6 -3 -11 -3q-11 0 -11 10q0 11 12 21l111 89q15 11 26 11t17 -13l39 -96q2 -6 2 -8q0 -15 -13 -15q-6 0 -15 9zM-16 -6q-11 21 -11 51q0 73 62 133l2 2q-69 52 -69 134q0 111 119 223q57 53 129.5 84t127.5 31q50 0 83.5 -31t33.5 -87 q0 -76 -63.5 -140t-151.5 -64q-23 0 -40 6t-17 14q0 9 19 13q87 20 134.5 73t47.5 105q0 31 -17 50.5t-48 19.5q-51 0 -112.5 -45.5t-105.5 -117t-44 -138.5q0 -56 26 -91q67 39 124 39q28 0 44.5 -11.5t16.5 -32.5q0 -29 -29.5 -50t-91.5 -21q-33 0 -61 9l-1 -1 q-32 -47 -32 -92q0 -68 77 -68q47 0 97 23q54 25 85.5 49t66.5 65q3 3 9 11t10 12q9 9 16 9q11 0 11 -14q0 -9 -11 -23l-21 -25q-47 -55 -88 -84q-118 -85 -215 -85q-80 0 -112 65zM209 209q0 14 -17 14q-28 0 -67 -34q22 -11 40 -11q19 0 31.5 9.5t12.5 21.5z" />
<glyph unicode="&#xcb;" horiz-adv-x="385" d="M438 794q12 0 21.5 -7t9.5 -20q0 -18 -20.5 -36.5t-42.5 -18.5q-13 0 -22 7.5t-9 19.5q0 20 20 37.5t43 17.5zM318 794q12 0 21.5 -7t9.5 -20q0 -18 -20.5 -36.5t-42.5 -18.5q-13 0 -22 7.5t-9 19.5q0 20 20 37.5t43 17.5zM-16 -6q-11 21 -11 51q0 73 62 133l2 2 q-69 52 -69 134q0 111 119 223q57 53 129.5 84t127.5 31q50 0 83.5 -31t33.5 -87q0 -76 -63.5 -140t-151.5 -64q-23 0 -40 6t-17 14q0 9 19 13q87 20 134.5 73t47.5 105q0 31 -17 50.5t-48 19.5q-51 0 -112.5 -45.5t-105.5 -117t-44 -138.5q0 -56 26 -91q67 39 124 39 q28 0 44.5 -11.5t16.5 -32.5q0 -29 -29.5 -50t-91.5 -21q-33 0 -61 9l-1 -1q-32 -47 -32 -92q0 -68 77 -68q47 0 97 23q54 25 85.5 49t66.5 65q3 3 9 11t10 12q9 9 16 9q11 0 11 -14q0 -9 -11 -23l-21 -25q-47 -55 -88 -84q-118 -85 -215 -85q-80 0 -112 65zM209 209 q0 14 -17 14q-28 0 -67 -34q22 -11 40 -11q19 0 31.5 9.5t12.5 21.5z" />
<glyph unicode="&#xcc;" horiz-adv-x="281" d="M55 513q-57 -67 -57 -151q0 -45 25 -75t56 -30q22 0 22 -15q0 -6 -7 -13.5t-24 -14t-40 -6.5q-43 0 -72 34.5t-29 85.5q0 54 30 117t86 109q59 49 135.5 73.5t145.5 24.5q19 0 19 -20q0 -2 -2 -10l-177 -515q-32 -94 -85 -136t-107 -42q-20 0 -20 11q0 10 31 20 q21 7 44 30t34 53l189 549q-131 0 -197 -79zM417 726q9 -8 9 -16q0 -14 -13 -14q-2 0 -10 3l-8 3l-131 48q-14 6 -14 17q0 5 2 11l12 36q5 14 16 14q5 0 13 -5z" />
<glyph unicode="&#xcd;" horiz-adv-x="281" d="M55 513q-57 -67 -57 -151q0 -45 25 -75t56 -30q22 0 22 -15q0 -6 -7 -13.5t-24 -14t-40 -6.5q-43 0 -72 34.5t-29 85.5q0 54 30 117t86 109q59 49 135.5 73.5t145.5 24.5q19 0 19 -20q0 -2 -2 -10l-177 -515q-32 -94 -85 -136t-107 -42q-20 0 -20 11q0 10 31 20 q21 7 44 30t34 53l189 549q-131 0 -197 -79zM261 698q-6 -2 -9 -2q-11 0 -11 11q0 15 18 26l151 91q5 4 12 4q13 0 13 -14q0 -1 -0.5 -2.5t-0.5 -2.5l-15 -42q-5 -16 -22 -22z" />
<glyph unicode="&#xce;" horiz-adv-x="281" d="M55 513q-57 -67 -57 -151q0 -45 25 -75t56 -30q22 0 22 -15q0 -6 -7 -13.5t-24 -14t-40 -6.5q-43 0 -72 34.5t-29 85.5q0 54 30 117t86 109q59 49 135.5 73.5t145.5 24.5q19 0 19 -20q0 -2 -2 -10l-177 -515q-32 -94 -85 -136t-107 -42q-20 0 -20 11q0 10 31 20 q21 7 44 30t34 53l189 549q-131 0 -197 -79zM400 705l-50 51l-107 -56q-6 -3 -11 -3q-11 0 -11 10q0 11 12 21l111 89q15 11 26 11t17 -13l39 -96q2 -6 2 -8q0 -15 -13 -15q-6 0 -15 9z" />
<glyph unicode="&#xcf;" horiz-adv-x="281" d="M55 513q-57 -67 -57 -151q0 -45 25 -75t56 -30q22 0 22 -15q0 -6 -7 -13.5t-24 -14t-40 -6.5q-43 0 -72 34.5t-29 85.5q0 54 30 117t86 109q59 49 135.5 73.5t145.5 24.5q19 0 19 -20q0 -2 -2 -10l-177 -515q-32 -94 -85 -136t-107 -42q-20 0 -20 11q0 10 31 20 q21 7 44 30t34 53l189 549q-131 0 -197 -79zM409 794q12 0 21.5 -7t9.5 -20q0 -18 -20.5 -36.5t-42.5 -18.5q-13 0 -22 7.5t-9 19.5q0 20 20 37.5t43 17.5zM289 794q12 0 21.5 -7t9.5 -20q0 -18 -20.5 -36.5t-42.5 -18.5q-13 0 -22 7.5t-9 19.5q0 20 20 37.5t43 17.5z" />
<glyph unicode="&#xd0;" horiz-adv-x="577" d="M163 -29q108 0 192.5 111.5t109.5 283.5q3 21 3 42q0 89 -53 150t-139 61q-50 0 -103 -24t-92.5 -74t-39.5 -113q0 -29 11.5 -45.5t25 -20t25 -8.5t11.5 -13q0 -21 -54 -21q-43 0 -74 28.5t-31 79.5q0 71 49 128t124 86.5t158 29.5q120 0 199 -71.5t79 -186.5 q0 -22 -3 -46q-17 -121 -84 -218t-159 -149t-189 -52q-94 0 -143 31t-49 76q0 49 49 76t109 30l22 65h-82q-15 0 -15 9q0 10 14 20.5t30 10.5h67l93 267q7 21 28.5 36t39.5 15q21 0 21 -19q0 -8 -2 -13l-99 -286h69q15 0 15 -9q0 -10 -14.5 -20.5t-30.5 -10.5h-53l-26 -76 q55 -21 55 -67q0 -17 -9.5 -28t-21.5 -11q-16 0 -16 17q0 18 -25 39l-4 -12q-7 -22 -29 -36.5t-40 -14.5q-21 0 -21 18q0 6 3 14l19 55q-22 -2 -43.5 -17t-21.5 -42q0 -75 145 -75z" />
<glyph unicode="&#xd1;" horiz-adv-x="493" d="M389 101q-7 -18 -7 -47q0 -72 42 -103q9 -7 9 -13q0 -9 -12 -9q-4 0 -6 1q-49 12 -79 53.5t-30 89.5q0 23 7 41l100 289q6 15 6 19q0 3 -2 3q-4 0 -86 -96q-127 -148 -206 -285q-11 -19 -30.5 -31.5t-35.5 -12.5q-21 0 -21 18q0 6 3 13l133 388q15 45 15 82q0 49 -23 79 t-62 30q-50 0 -84.5 -53t-34.5 -102q0 -68 37 -68q13 0 26.5 11.5t18.5 11.5q13 0 13 -23q0 -29 -29.5 -56t-65.5 -27q-28 0 -48 23t-20 76q0 104 73 176.5t147 72.5q56 0 94.5 -39t38.5 -106q0 -38 -17 -91l-76 -222q54 82 139.5 191t126.5 146q36 33 69 33q26 0 26 -22 q0 -10 -6 -25zM447 618q-16 0 -47 19t-40 19q-14 0 -24 -12q-6 -7 -15 -7q-12 0 -12 10q0 7 5 15q23 37 55 37q15 0 47 -19.5t41 -19.5q13 0 23 12q6 7 15 7q11 0 11 -10q0 -11 -17 -31t-42 -20z" />
<glyph unicode="&#xd2;" horiz-adv-x="520" d="M217 134q-42 0 -63 30.5t-21 78.5q0 37 12 73q39 115 112 181t144 66q52 0 84.5 -38t32.5 -111q0 -40 -10 -86q-21 -96 -56 -169.5t-73 -116t-82.5 -69t-80.5 -35.5t-72 -9q-81 0 -123.5 58t-42.5 155q0 91 40 187t97 165t120.5 113.5t111.5 44.5q22 0 22 -14 q0 -12 -16 -18q-88 -32 -155.5 -118.5t-98.5 -181t-31 -178.5t28 -127.5t69 -43.5q61 0 130.5 69.5t110.5 203.5q27 90 27 156q0 52 -16.5 80.5t-42.5 28.5q-38 0 -80.5 -55.5t-72.5 -157.5q-11 -38 -11 -76q0 -30 12 -51l12 -21q0 -14 -17 -14zM509 726q9 -8 9 -16 q0 -14 -13 -14q-2 0 -10 3l-8 3l-131 48q-14 6 -14 17q0 5 2 11l12 36q5 14 16 14q5 0 13 -5z" />
<glyph unicode="&#xd3;" horiz-adv-x="520" d="M217 134q-42 0 -63 30.5t-21 78.5q0 37 12 73q39 115 112 181t144 66q52 0 84.5 -38t32.5 -111q0 -40 -10 -86q-21 -96 -56 -169.5t-73 -116t-82.5 -69t-80.5 -35.5t-72 -9q-81 0 -123.5 58t-42.5 155q0 91 40 187t97 165t120.5 113.5t111.5 44.5q22 0 22 -14 q0 -12 -16 -18q-88 -32 -155.5 -118.5t-98.5 -181t-31 -178.5t28 -127.5t69 -43.5q61 0 130.5 69.5t110.5 203.5q27 90 27 156q0 52 -16.5 80.5t-42.5 28.5q-38 0 -80.5 -55.5t-72.5 -157.5q-11 -38 -11 -76q0 -30 12 -51l12 -21q0 -14 -17 -14zM353 698q-6 -2 -9 -2 q-11 0 -11 11q0 15 18 26l151 91q5 4 12 4q13 0 13 -14q0 -1 -0.5 -2.5t-0.5 -2.5l-15 -42q-5 -16 -22 -22z" />
<glyph unicode="&#xd4;" horiz-adv-x="520" d="M217 134q-42 0 -63 30.5t-21 78.5q0 37 12 73q39 115 112 181t144 66q52 0 84.5 -38t32.5 -111q0 -40 -10 -86q-21 -96 -56 -169.5t-73 -116t-82.5 -69t-80.5 -35.5t-72 -9q-81 0 -123.5 58t-42.5 155q0 91 40 187t97 165t120.5 113.5t111.5 44.5q22 0 22 -14 q0 -12 -16 -18q-88 -32 -155.5 -118.5t-98.5 -181t-31 -178.5t28 -127.5t69 -43.5q61 0 130.5 69.5t110.5 203.5q27 90 27 156q0 52 -16.5 80.5t-42.5 28.5q-38 0 -80.5 -55.5t-72.5 -157.5q-11 -38 -11 -76q0 -30 12 -51l12 -21q0 -14 -17 -14zM492 705l-50 51l-107 -56 q-6 -3 -11 -3q-11 0 -11 10q0 11 12 21l111 89q15 11 26 11t17 -13l39 -96q2 -6 2 -8q0 -15 -13 -15q-6 0 -15 9z" />
<glyph unicode="&#xd5;" horiz-adv-x="520" d="M217 134q-42 0 -63 30.5t-21 78.5q0 37 12 73q39 115 112 181t144 66q52 0 84.5 -38t32.5 -111q0 -40 -10 -86q-21 -96 -56 -169.5t-73 -116t-82.5 -69t-80.5 -35.5t-72 -9q-81 0 -123.5 58t-42.5 155q0 91 40 187t97 165t120.5 113.5t111.5 44.5q22 0 22 -14 q0 -12 -16 -18q-88 -32 -155.5 -118.5t-98.5 -181t-31 -178.5t28 -127.5t69 -43.5q61 0 130.5 69.5t110.5 203.5q27 90 27 156q0 52 -16.5 80.5t-42.5 28.5q-38 0 -80.5 -55.5t-72.5 -157.5q-11 -38 -11 -76q0 -30 12 -51l12 -21q0 -14 -17 -14zM466 697q-16 0 -47 19 t-40 19q-13 0 -24 -12q-6 -7 -15 -7q-12 0 -12 10q0 8 5 15q23 37 55 37q16 0 47 -19.5t41 -19.5q13 0 23 12q6 7 15 7q11 0 11 -10q0 -11 -17 -31t-42 -20z" />
<glyph unicode="&#xd6;" horiz-adv-x="520" d="M217 134q-42 0 -63 30.5t-21 78.5q0 37 12 73q39 115 112 181t144 66q52 0 84.5 -38t32.5 -111q0 -40 -10 -86q-21 -96 -56 -169.5t-73 -116t-82.5 -69t-80.5 -35.5t-72 -9q-81 0 -123.5 58t-42.5 155q0 91 40 187t97 165t120.5 113.5t111.5 44.5q22 0 22 -14 q0 -12 -16 -18q-88 -32 -155.5 -118.5t-98.5 -181t-31 -178.5t28 -127.5t69 -43.5q61 0 130.5 69.5t110.5 203.5q27 90 27 156q0 52 -16.5 80.5t-42.5 28.5q-38 0 -80.5 -55.5t-72.5 -157.5q-11 -38 -11 -76q0 -30 12 -51l12 -21q0 -14 -17 -14zM501 794q12 0 21.5 -7 t9.5 -20q0 -18 -20.5 -36.5t-42.5 -18.5q-13 0 -22 7.5t-9 19.5q0 20 20 37.5t43 17.5zM381 794q12 0 21.5 -7t9.5 -20q0 -18 -20.5 -36.5t-42.5 -18.5q-13 0 -22 7.5t-9 19.5q0 20 20 37.5t43 17.5z" />
<glyph unicode="&#xd7;" horiz-adv-x="350" d="M293 437q10 7 17 7q12 0 12 -16q0 -19 -19 -34l-89 -66l32 -49q8 -12 8 -30q0 -17 -7.5 -29.5t-17.5 -12.5q-9 0 -17 12l-48 72l-102 -76q-10 -7 -17 -7q-12 0 -12 15q0 21 20 35l89 66l-32 48q-8 12 -8 29t8 30.5t18 13.5q9 0 17 -11l47 -72z" />
<glyph unicode="&#xd8;" horiz-adv-x="520" d="M7 -75l29 44q-58 56 -58 173q0 91 40 187t97 165t120.5 113.5t111.5 44.5q22 0 22 -14q0 -12 -16 -18q-88 -32 -155.5 -118.5t-98.5 -181t-31 -178.5q0 -61 16 -103l78 116q-29 29 -29 88q0 37 12 73q39 115 112 181t144 66q16 0 33 -5l42 62q22 33 49 33q14 0 14 -13 q0 -10 -10 -24l-54 -80q43 -40 43 -122q0 -40 -10 -86q-21 -96 -56 -169.5t-73 -116t-82.5 -69t-80.5 -35.5t-72 -9q-39 0 -70 14l-14 -21q-22 -33 -49 -33q-14 0 -14 12q0 10 10 24zM217 134q-9 0 -13 1l-94 -139q24 -25 55 -25q61 0 130.5 69.5t110.5 203.5q27 90 27 156 q0 35 -8 61l-201 -297q10 -14 10 -16q0 -14 -17 -14zM221 296q-11 -35 -11 -70l186 276q-12 7 -22 7q-38 0 -80.5 -55.5t-72.5 -157.5z" />
<glyph unicode="&#xd9;" horiz-adv-x="507" d="M465 514q7 21 28.5 36t40.5 15q21 0 21 -18q0 -7 -3 -14l-149 -432q-7 -19 -7 -47q0 -72 42 -103q8 -7 8 -13q0 -9 -12 -9q-3 0 -5 1q-50 12 -79 54t-29 90q0 22 6 40l12 34q-110 -148 -194 -148q-38 0 -60.5 30t-22.5 68q0 9 1 13q7 58 37.5 130.5t73 153.5t58.5 123 q9 26 9 44q0 23 -12 35.5t-33 12.5q-54 0 -107 -66q-56 -70 -56 -135q0 -26 9.5 -41.5t23.5 -15.5q3 0 8 1t7 1q11 0 11 -10q0 -15 -19.5 -29.5t-42.5 -14.5q-30 0 -54.5 24t-24.5 64q0 50 42 112t107.5 107t125.5 45q98 0 98 -79q0 -28 -11 -56q-22 -59 -66 -147.5 t-71 -152t-27 -100.5q0 -50 33 -50q44 0 114 80.5t108 190.5zM505 647q9 -7 9 -16q0 -14 -13 -14q-2 0 -10 3l-8 3l-131 48q-14 6 -14 17q0 5 2 11l12 36q5 14 16 14q5 0 13 -5z" />
<glyph unicode="&#xda;" horiz-adv-x="507" d="M465 514q7 21 28.5 36t40.5 15q21 0 21 -18q0 -7 -3 -14l-149 -432q-7 -19 -7 -47q0 -72 42 -103q8 -7 8 -13q0 -9 -12 -9q-3 0 -5 1q-50 12 -79 54t-29 90q0 22 6 40l12 34q-110 -148 -194 -148q-38 0 -60.5 30t-22.5 68q0 9 1 13q7 58 37.5 130.5t73 153.5t58.5 123 q9 26 9 44q0 23 -12 35.5t-33 12.5q-54 0 -107 -66q-56 -70 -56 -135q0 -26 9.5 -41.5t23.5 -15.5q3 0 8 1t7 1q11 0 11 -10q0 -15 -19.5 -29.5t-42.5 -14.5q-30 0 -54.5 24t-24.5 64q0 50 42 112t107.5 107t125.5 45q98 0 98 -79q0 -28 -11 -56q-22 -59 -66 -147.5 t-71 -152t-27 -100.5q0 -50 33 -50q44 0 114 80.5t108 190.5zM384 619q-6 -2 -9 -2q-11 0 -11 11q0 15 18 26l151 91q5 4 12 4q13 0 13 -14q0 -1 -0.5 -2.5t-0.5 -2.5l-15 -42q-5 -16 -22 -22z" />
<glyph unicode="&#xdb;" horiz-adv-x="507" d="M465 514q7 21 28.5 36t40.5 15q21 0 21 -18q0 -7 -3 -14l-149 -432q-7 -19 -7 -47q0 -72 42 -103q8 -7 8 -13q0 -9 -12 -9q-3 0 -5 1q-50 12 -79 54t-29 90q0 22 6 40l12 34q-110 -148 -194 -148q-38 0 -60.5 30t-22.5 68q0 9 1 13q7 58 37.5 130.5t73 153.5t58.5 123 q9 26 9 44q0 23 -12 35.5t-33 12.5q-54 0 -107 -66q-56 -70 -56 -135q0 -26 9.5 -41.5t23.5 -15.5q3 0 8 1t7 1q11 0 11 -10q0 -15 -19.5 -29.5t-42.5 -14.5q-30 0 -54.5 24t-24.5 64q0 50 42 112t107.5 107t125.5 45q98 0 98 -79q0 -28 -11 -56q-22 -59 -66 -147.5 t-71 -152t-27 -100.5q0 -50 33 -50q44 0 114 80.5t108 190.5zM523 626l-50 51l-107 -56q-6 -3 -11 -3q-11 0 -11 10t12 21l111 89q15 11 26 11t17 -13l39 -96q2 -6 2 -8q0 -15 -13 -15q-6 0 -15 9z" />
<glyph unicode="&#xdc;" horiz-adv-x="507" d="M465 514q7 21 28.5 36t40.5 15q21 0 21 -18q0 -7 -3 -14l-149 -432q-7 -19 -7 -47q0 -72 42 -103q8 -7 8 -13q0 -9 -12 -9q-3 0 -5 1q-50 12 -79 54t-29 90q0 22 6 40l12 34q-110 -148 -194 -148q-38 0 -60.5 30t-22.5 68q0 9 1 13q7 58 37.5 130.5t73 153.5t58.5 123 q9 26 9 44q0 23 -12 35.5t-33 12.5q-54 0 -107 -66q-56 -70 -56 -135q0 -26 9.5 -41.5t23.5 -15.5q3 0 8 1t7 1q11 0 11 -10q0 -15 -19.5 -29.5t-42.5 -14.5q-30 0 -54.5 24t-24.5 64q0 50 42 112t107.5 107t125.5 45q98 0 98 -79q0 -28 -11 -56q-22 -59 -66 -147.5 t-71 -152t-27 -100.5q0 -50 33 -50q44 0 114 80.5t108 190.5zM532 715q12 0 21.5 -7t9.5 -20q0 -18 -20.5 -36.5t-42.5 -18.5q-13 0 -22 7.5t-9 19.5q0 20 20 37.5t43 17.5zM412 715q12 0 21.5 -7t9.5 -20q0 -18 -20.5 -36.5t-42.5 -18.5q-13 0 -22 7.5t-9 19.5 q0 20 20 37.5t43 17.5z" />
<glyph unicode="&#xdd;" horiz-adv-x="497" d="M405 352l56 162q7 21 28.5 36t40.5 15q21 0 21 -18q0 -7 -3 -14l-187 -541q52 -3 81.5 -22t29.5 -47q0 -17 -13 -38.5t-29 -21.5q-14 0 -14 13q0 3 1 9.5t1 9.5q0 51 -69 60l-3 -9q-32 -94 -88.5 -136t-112.5 -42q-38 0 -62.5 20t-24.5 48q0 51 67.5 91.5t152.5 57.5 l58 166q-111 -151 -195 -151q-38 0 -60.5 30t-22.5 68q0 52 30 125t76.5 161.5t63.5 133.5q9 26 9 44q0 23 -12 35.5t-33 12.5q-54 0 -107 -66q-56 -70 -56 -134q0 -26 9.5 -42t23.5 -16q3 0 8 1t7 1q11 0 11 -10q0 -16 -20.5 -30t-41.5 -14q-30 0 -54.5 24t-24.5 64 q0 48 41 110t106.5 108t127.5 46q98 0 98 -79q0 -28 -11 -56q-22 -59 -66 -147.5t-71 -152t-27 -100.5q0 -50 34 -50q45 0 114.5 81.5t111.5 203.5zM143 -147q0 -14 10.5 -24t23.5 -10q18 0 36.5 16.5t29.5 46.5l23 67q-51 -12 -87 -38t-36 -58zM387 619q-6 -2 -9 -2 q-11 0 -11 11q0 15 18 26l151 91q5 4 12 4q13 0 13 -14q0 -1 -0.5 -2.5t-0.5 -2.5l-15 -42q-5 -16 -22 -22z" />
<glyph unicode="&#xde;" horiz-adv-x="542" d="M-15 -71q-17 0 -17 11t23 17t48.5 29t37.5 57l148 429q-77 -18 -136.5 -72.5t-59.5 -132.5q0 -60 56 -71q17 -3 17 -16q0 -21 -54 -21q-43 0 -74 29t-31 79q0 95 88 161.5t206 80.5l32 92q8 21 29.5 36t39.5 15q21 0 21 -18q0 -5 -41 -124q90 -8 146 -57t56 -116 q0 -42 -16.5 -79.5t-41.5 -62.5t-55 -44t-57 -27.5t-48 -8.5q-16 0 -25.5 5.5t-9.5 12.5q0 10 16 11q52 6 101 54t49 134q0 54 -38.5 93t-88.5 50l-126 -368q-26 -76 -75.5 -127t-119.5 -51z" />
<glyph unicode="&#xdf;" horiz-adv-x="359" d="M145 0q-24 0 -48 11.5t-24 33.5q0 23 30.5 42.5t80.5 19.5q21 0 48 -4q-5 23 -55 76t-50 88q0 14 6 25.5t21.5 28.5t18.5 20q60 73 78 177q1 5 1 14q0 22 -13 22q-14 0 -34.5 -23t-45.5 -78t-41 -128l-45 -200q-3 -16 -19 -74q-5 -20 -24 -35.5t-39 -15.5t-20 19 q0 2 2 12l89 317h-29q-16 0 -16 10t13.5 20.5t29.5 10.5h17q43 105 112.5 183.5t110.5 78.5q28 0 28 -42q0 -152 -122 -285q-13 -15 -13 -32q0 -19 25.5 -48.5t51.5 -63.5t26 -65l-2 -19q22 0 35 6t30 26q8 8 17 8q12 0 12 -10q0 -12 -15 -28q-43 -51 -93 -51l-11 1 q-44 -48 -124 -48zM162 32q40 0 60 26q-52 15 -67 15q-26 0 -26 -17q0 -9 9.5 -16.5t23.5 -7.5z" />
<glyph unicode="&#xe0;" horiz-adv-x="315" d="M329 98q-40 -47 -79 -72.5t-66 -25.5q-43 0 -48 40q-35 -40 -79 -40q-35 0 -60 26t-25 65q0 73 63.5 141t147.5 68q39 0 64 -15.5t25 -44.5q0 -33 -20.5 -46.5t-39.5 -13.5q-36 0 -36 17q0 5 15.5 12.5t15.5 25.5q0 27 -40 27q-50 0 -87 -55t-37 -107q0 -23 9.5 -39.5 t27.5 -16.5q17 0 38.5 21t33.5 53q8 21 27 35.5t36 14.5q18 0 18 -16q0 -6 -3 -15q-25 -81 -25 -82q0 -9 8 -9q13 0 40.5 21.5t61.5 60.5q6 8 17 8t11 -10q0 -11 -14 -28zM288 374q9 -8 9 -16q0 -14 -13 -14q-2 0 -10 3l-8 3l-131 48q-14 6 -14 17q0 5 2 11l12 36 q5 14 16 14q5 0 13 -5z" />
<glyph unicode="&#xe1;" horiz-adv-x="315" d="M329 98q-40 -47 -79 -72.5t-66 -25.5q-43 0 -48 40q-35 -40 -79 -40q-35 0 -60 26t-25 65q0 73 63.5 141t147.5 68q39 0 64 -15.5t25 -44.5q0 -33 -20.5 -46.5t-39.5 -13.5q-36 0 -36 17q0 5 15.5 12.5t15.5 25.5q0 27 -40 27q-50 0 -87 -55t-37 -107q0 -23 9.5 -39.5 t27.5 -16.5q17 0 38.5 21t33.5 53q8 21 27 35.5t36 14.5q18 0 18 -16q0 -6 -3 -15q-25 -81 -25 -82q0 -9 8 -9q13 0 40.5 21.5t61.5 60.5q6 8 17 8t11 -10q0 -11 -14 -28zM132 346q-6 -2 -9 -2q-11 0 -11 11q0 15 18 26l151 91q5 4 12 4q13 0 13 -14q0 -1 -0.5 -2.5 t-0.5 -2.5l-15 -42q-5 -16 -22 -22z" />
<glyph unicode="&#xe2;" horiz-adv-x="315" d="M329 98q-40 -47 -79 -72.5t-66 -25.5q-43 0 -48 40q-35 -40 -79 -40q-35 0 -60 26t-25 65q0 73 63.5 141t147.5 68q39 0 64 -15.5t25 -44.5q0 -33 -20.5 -46.5t-39.5 -13.5q-36 0 -36 17q0 5 15.5 12.5t15.5 25.5q0 27 -40 27q-50 0 -87 -55t-37 -107q0 -23 9.5 -39.5 t27.5 -16.5q17 0 38.5 21t33.5 53q8 21 27 35.5t36 14.5q18 0 18 -16q0 -6 -3 -15q-25 -81 -25 -82q0 -9 8 -9q13 0 40.5 21.5t61.5 60.5q6 8 17 8t11 -10q0 -11 -14 -28zM271 353l-50 51l-107 -56q-6 -3 -11 -3q-11 0 -11 10q0 11 12 21l111 89q15 11 26 11t17 -13l39 -96 q2 -6 2 -8q0 -15 -13 -15q-6 0 -15 9z" />
<glyph unicode="&#xe3;" horiz-adv-x="315" d="M329 98q-40 -47 -79 -72.5t-66 -25.5q-43 0 -48 40q-35 -40 -79 -40q-35 0 -60 26t-25 65q0 73 63.5 141t147.5 68q39 0 64 -15.5t25 -44.5q0 -33 -20.5 -46.5t-39.5 -13.5q-36 0 -36 17q0 5 15.5 12.5t15.5 25.5q0 27 -40 27q-50 0 -87 -55t-37 -107q0 -23 9.5 -39.5 t27.5 -16.5q17 0 38.5 21t33.5 53q8 21 27 35.5t36 14.5q18 0 18 -16q0 -6 -3 -15q-25 -81 -25 -82q0 -9 8 -9q13 0 40.5 21.5t61.5 60.5q6 8 17 8t11 -10q0 -11 -14 -28zM245 345q-16 0 -47 19t-40 19q-14 0 -24 -12q-6 -7 -15 -7q-12 0 -12 10q0 8 5 15q23 37 55 37 q15 0 47 -19.5t41 -19.5q13 0 23 12q6 7 15 7q11 0 11 -10q0 -11 -17 -31t-42 -20z" />
<glyph unicode="&#xe4;" horiz-adv-x="315" d="M329 98q-40 -47 -79 -72.5t-66 -25.5q-43 0 -48 40q-35 -40 -79 -40q-35 0 -60 26t-25 65q0 73 63.5 141t147.5 68q39 0 64 -15.5t25 -44.5q0 -33 -20.5 -46.5t-39.5 -13.5q-36 0 -36 17q0 5 15.5 12.5t15.5 25.5q0 27 -40 27q-50 0 -87 -55t-37 -107q0 -23 9.5 -39.5 t27.5 -16.5q17 0 38.5 21t33.5 53q8 21 27 35.5t36 14.5q18 0 18 -16q0 -6 -3 -15q-25 -81 -25 -82q0 -9 8 -9q13 0 40.5 21.5t61.5 60.5q6 8 17 8t11 -10q0 -11 -14 -28zM280 442q12 0 21.5 -7t9.5 -20q0 -18 -20.5 -36.5t-42.5 -18.5q-13 0 -22 7.5t-9 19.5q0 20 20 37.5 t43 17.5zM160 442q12 0 21.5 -7t9.5 -20q0 -18 -20.5 -36.5t-42.5 -18.5q-13 0 -22 7.5t-9 19.5q0 20 20 37.5t43 17.5z" />
<glyph unicode="&#xe5;" horiz-adv-x="315" d="M329 98q-40 -47 -79 -72.5t-66 -25.5q-43 0 -48 40q-35 -40 -79 -40q-35 0 -60 26t-25 65q0 73 63.5 141t147.5 68q39 0 64 -15.5t25 -44.5q0 -33 -20.5 -46.5t-39.5 -13.5q-36 0 -36 17q0 5 15.5 12.5t15.5 25.5q0 27 -40 27q-50 0 -87 -55t-37 -107q0 -23 9.5 -39.5 t27.5 -16.5q17 0 38.5 21t33.5 53q8 21 27 35.5t36 14.5q18 0 18 -16q0 -6 -3 -15q-25 -81 -25 -82q0 -9 8 -9q13 0 40.5 21.5t61.5 60.5q6 8 17 8t11 -10q0 -11 -14 -28zM240 482q26 0 44 -15.5t18 -41.5q0 -33 -29.5 -60t-65.5 -27q-26 0 -44 16t-18 41q0 32 29 59.5 t66 27.5zM256 418q0 33 -27 33q-14 0 -26 -14t-12 -33q0 -15 7.5 -25t19.5 -10q13 0 25.5 15t12.5 34z" />
<glyph unicode="&#xe6;" horiz-adv-x="439" d="M266 0q-39 0 -68 19.5t-40 51.5v-1q-40 -70 -101 -70q-34 0 -59.5 26.5t-25.5 64.5q0 66 53 129q31 37 74 58.5t83 21.5q46 0 66 -25q43 25 90 25q35 0 54 -18t19 -43q0 -39 -44 -84t-100 -70q-6 -3 -11 -3q-14 0 -14 12q0 10 14 21q38 30 61 63t23 59q0 28 -23 28 q-30 0 -61 -45.5t-31 -99.5q0 -34 20 -52.5t52 -18.5q74 0 142 79q8 8 17 8q12 0 12 -11q0 -10 -14 -27q-38 -45 -88.5 -71.5t-99.5 -26.5zM189 219q6 7 6 18q0 25 -29 25q-47 0 -85 -53.5t-38 -108.5q0 -23 9.5 -39.5t27.5 -16.5q17 0 38 21t34 53q2 53 37 101z" />
<glyph unicode="&#xe7;" horiz-adv-x="261" d="M141 264q-37 0 -66 -47t-29 -97q0 -34 20 -52.5t53 -18.5q74 0 142 79q6 8 17 8t11 -10q0 -11 -14 -28q-77 -90 -174 -98l-8 -22q9 3 19 3q17 0 29 -9.5t12 -28.5q0 -27 -23.5 -42.5t-52.5 -15.5q-16 0 -29 5.5t-13 15.5q0 12 11 12q3 0 12 -4t19 -4q16 0 26.5 9t10.5 19 q0 15 -18 15q-7 0 -15 -3t-11 -3q-12 0 -12 10q0 1 2 7l12 36q-44 5 -71.5 34t-27.5 72q0 75 54.5 134.5t131.5 59.5q33 0 55 -17.5t22 -44.5q0 -31 -23 -55t-52 -24q-17 0 -27.5 8.5t-10.5 19.5q0 6 4.5 11t11.5 5h5q23 0 23 31q0 30 -26 30z" />
<glyph unicode="&#xe8;" horiz-adv-x="261" d="M261 128q6 8 17 8t11 -10q0 -11 -14 -28q-38 -45 -88.5 -71.5t-99.5 -26.5t-81.5 29.5t-32.5 76.5q0 73 53.5 133.5t132.5 60.5q35 0 54.5 -18t19.5 -43q0 -39 -44.5 -83.5t-100.5 -70.5q-6 -3 -11 -3q-14 0 -14 12q0 10 14 21q84 67 84 122q0 28 -23 28q-32 0 -62 -47 t-30 -98q0 -34 20 -52.5t53 -18.5q74 0 142 79zM268 374q9 -8 9 -16q0 -14 -13 -14q-2 0 -10 3l-8 3l-131 48q-14 6 -14 17q0 5 2 11l12 36q5 14 16 14q5 0 13 -5z" />
<glyph unicode="&#xe9;" horiz-adv-x="261" d="M261 128q6 8 17 8t11 -10q0 -11 -14 -28q-38 -45 -88.5 -71.5t-99.5 -26.5t-81.5 29.5t-32.5 76.5q0 73 53.5 133.5t132.5 60.5q35 0 54.5 -18t19.5 -43q0 -39 -44.5 -83.5t-100.5 -70.5q-6 -3 -11 -3q-14 0 -14 12q0 10 14 21q84 67 84 122q0 28 -23 28q-32 0 -62 -47 t-30 -98q0 -34 20 -52.5t53 -18.5q74 0 142 79zM112 346q-6 -2 -9 -2q-11 0 -11 11q0 15 18 26l151 91q5 4 12 4q13 0 13 -14q0 -1 -0.5 -2.5t-0.5 -2.5l-15 -42q-5 -16 -22 -22z" />
<glyph unicode="&#xea;" horiz-adv-x="261" d="M261 128q6 8 17 8t11 -10q0 -11 -14 -28q-38 -45 -88.5 -71.5t-99.5 -26.5t-81.5 29.5t-32.5 76.5q0 73 53.5 133.5t132.5 60.5q35 0 54.5 -18t19.5 -43q0 -39 -44.5 -83.5t-100.5 -70.5q-6 -3 -11 -3q-14 0 -14 12q0 10 14 21q84 67 84 122q0 28 -23 28q-32 0 -62 -47 t-30 -98q0 -34 20 -52.5t53 -18.5q74 0 142 79zM251 353l-50 51l-107 -56q-6 -3 -11 -3q-11 0 -11 10q0 11 12 21l111 89q15 11 26 11t17 -13l39 -96q2 -6 2 -8q0 -15 -13 -15q-6 0 -15 9z" />
<glyph unicode="&#xeb;" horiz-adv-x="261" d="M261 128q6 8 17 8t11 -10q0 -11 -14 -28q-38 -45 -88.5 -71.5t-99.5 -26.5t-81.5 29.5t-32.5 76.5q0 73 53.5 133.5t132.5 60.5q35 0 54.5 -18t19.5 -43q0 -39 -44.5 -83.5t-100.5 -70.5q-6 -3 -11 -3q-14 0 -14 12q0 10 14 21q84 67 84 122q0 28 -23 28q-32 0 -62 -47 t-30 -98q0 -34 20 -52.5t53 -18.5q74 0 142 79zM260 442q12 0 21.5 -7t9.5 -20q0 -18 -20.5 -36.5t-42.5 -18.5q-13 0 -22 7.5t-9 19.5q0 20 20 37.5t43 17.5zM140 442q12 0 21.5 -7t9.5 -20q0 -18 -20.5 -36.5t-42.5 -18.5q-13 0 -22 7.5t-9 19.5q0 20 20 37.5t43 17.5z " />
<glyph unicode="&#xec;" horiz-adv-x="167" d="M118 227q-42 -91 -59 -148q-4 -14 -4 -20q0 -13 10 -13q13 0 40.5 21.5t61.5 60.5q7 8 17 8q12 0 12 -10q0 -12 -15 -28q-40 -47 -79 -72.5t-66 -25.5q-54 0 -54 56q0 18 6 37q12 41 51 123q5 12 5 14q0 4 -5 4q-1 0 -4 -0.5t-5 -0.5q-14 0 -14 10q0 16 34 36.5t70 20.5 q20 0 20 -15q0 -10 -22 -58zM208 374q9 -8 9 -16q0 -14 -13 -14q-2 0 -10 3l-8 3l-131 48q-14 6 -14 17q0 5 2 11l12 36q5 14 16 14q5 0 13 -5z" />
<glyph unicode="&#xed;" horiz-adv-x="167" d="M118 227q-42 -91 -59 -148q-4 -14 -4 -20q0 -13 10 -13q13 0 40.5 21.5t61.5 60.5q7 8 17 8q12 0 12 -10q0 -12 -15 -28q-40 -47 -79 -72.5t-66 -25.5q-54 0 -54 56q0 18 6 37q12 41 51 123q5 12 5 14q0 4 -5 4q-1 0 -4 -0.5t-5 -0.5q-14 0 -14 10q0 16 34 36.5t70 20.5 q20 0 20 -15q0 -10 -22 -58zM52 346q-6 -2 -9 -2q-11 0 -11 11q0 15 18 26l151 91q5 4 12 4q13 0 13 -14q0 -1 -0.5 -2.5t-0.5 -2.5l-15 -42q-5 -16 -22 -22z" />
<glyph unicode="&#xee;" horiz-adv-x="167" d="M118 227q-42 -91 -59 -148q-4 -14 -4 -20q0 -13 10 -13q13 0 40.5 21.5t61.5 60.5q7 8 17 8q12 0 12 -10q0 -12 -15 -28q-40 -47 -79 -72.5t-66 -25.5q-54 0 -54 56q0 18 6 37q12 41 51 123q5 12 5 14q0 4 -5 4q-1 0 -4 -0.5t-5 -0.5q-14 0 -14 10q0 16 34 36.5t70 20.5 q20 0 20 -15q0 -10 -22 -58zM191 353l-50 51l-107 -56q-6 -3 -11 -3q-11 0 -11 10q0 11 12 21l111 89q15 11 26 11t17 -13l39 -96q2 -6 2 -8q0 -15 -13 -15q-6 0 -15 9z" />
<glyph unicode="&#xef;" horiz-adv-x="167" d="M118 227q-42 -91 -59 -148q-4 -14 -4 -20q0 -13 10 -13q13 0 40.5 21.5t61.5 60.5q7 8 17 8q12 0 12 -10q0 -12 -15 -28q-40 -47 -79 -72.5t-66 -25.5q-54 0 -54 56q0 18 6 37q12 41 51 123q5 12 5 14q0 4 -5 4q-1 0 -4 -0.5t-5 -0.5q-14 0 -14 10q0 16 34 36.5t70 20.5 q20 0 20 -15q0 -10 -22 -58zM200 442q12 0 21.5 -7t9.5 -20q0 -18 -20.5 -36.5t-42.5 -18.5q-13 0 -22 7.5t-9 19.5q0 20 20 37.5t43 17.5zM80 442q12 0 21.5 -7t9.5 -20q0 -18 -20.5 -36.5t-42.5 -18.5q-13 0 -22 7.5t-9 19.5q0 20 20 37.5t43 17.5z" />
<glyph unicode="&#xf0;" horiz-adv-x="283" d="M316 472q6 2 8 2q9 0 9 -10t-10 -22.5t-23 -16.5l-31 -10q9 -43 9 -89q0 -132 -69 -229t-143 -97q-40 0 -65 29.5t-25 72.5q0 76 62 141.5t130 65.5q22 0 22 -16q0 -15 -13 -15q-49 0 -90.5 -51.5t-41.5 -120.5q0 -62 41 -62q56 0 93 90t37 199q0 33 -3 64l-68 -22 q-6 -2 -9 -2q-9 0 -9 9q0 10 10.5 23t23.5 17l45 14q-19 101 -69 153q-10 10 -10 19q0 13 15 13q13 0 24 -10q29 -25 55 -68t38 -90z" />
<glyph unicode="&#xf1;" horiz-adv-x="322" d="M214 79q-3 -11 -3 -19q0 -14 9 -14q32 0 102 82q8 8 17 8q12 0 12 -11q0 -9 -15 -27q-40 -47 -79 -72.5t-66 -25.5q-53 0 -53 55q0 17 6 38q9 32 22.5 63t22.5 48.5t9 22.5q0 6 -5 6q-19 0 -69.5 -49.5t-63.5 -88.5l-15 -44q-7 -22 -27 -36.5t-37 -14.5t-17 16q0 6 3 15 l64 187q4 12 4 14q0 4 -4 4q-1 0 -4 -0.5t-5 -0.5q-14 0 -14 10q0 14 31.5 34.5t65.5 20.5q17 0 17 -17q0 -6 -3 -15l-23 -67q37 42 84 70.5t78 28.5q29 0 29 -27q0 -16 -14 -46q-39 -80 -59 -148zM235 345q-16 0 -47 19t-40 19q-14 0 -24 -12q-6 -7 -15 -7q-12 0 -12 10 q0 8 5 15q23 37 55 37q15 0 47 -19.5t41 -19.5q13 0 23 12q6 7 15 7q11 0 11 -10q0 -11 -17 -31t-42 -20z" />
<glyph unicode="&#xf2;" horiz-adv-x="313" d="M229 277q31 -30 31 -80q0 -54 -34 -103q5 -1 16 -1q40 0 71 35q6 8 17 8t11 -10q0 -11 -14 -28q-43 -50 -101 -50q-16 0 -34 5q-56 -53 -121 -53q-44 0 -69.5 29t-25.5 73q0 69 50 128q38 45 55 45q14 0 14 -17q0 -6 -4 -10q-44 -46 -44 -115q0 -38 16.5 -63.5 t42.5 -25.5q27 0 52 25q-31 19 -50 50.5t-19 69.5q0 41 23 76t64 35q30 0 53 -23zM158 251q-17 0 -25.5 -14t-8.5 -33q0 -27 17 -53t44 -42q12 30 12 64q0 32 -10 55t-29 23zM284 374q9 -8 9 -16q0 -14 -13 -14q-2 0 -10 3l-8 3l-131 48q-14 6 -14 17q0 5 2 11l12 36 q5 14 16 14q5 0 13 -5z" />
<glyph unicode="&#xf3;" horiz-adv-x="313" d="M229 277q31 -30 31 -80q0 -54 -34 -103q5 -1 16 -1q40 0 71 35q6 8 17 8t11 -10q0 -11 -14 -28q-43 -50 -101 -50q-16 0 -34 5q-56 -53 -121 -53q-44 0 -69.5 29t-25.5 73q0 69 50 128q38 45 55 45q14 0 14 -17q0 -6 -4 -10q-44 -46 -44 -115q0 -38 16.5 -63.5 t42.5 -25.5q27 0 52 25q-31 19 -50 50.5t-19 69.5q0 41 23 76t64 35q30 0 53 -23zM158 251q-17 0 -25.5 -14t-8.5 -33q0 -27 17 -53t44 -42q12 30 12 64q0 32 -10 55t-29 23zM128 346q-6 -2 -9 -2q-11 0 -11 11q0 15 18 26l151 91q5 4 12 4q13 0 13 -14q0 -1 -0.5 -2.5 t-0.5 -2.5l-15 -42q-5 -16 -22 -22z" />
<glyph unicode="&#xf4;" horiz-adv-x="313" d="M229 277q31 -30 31 -80q0 -54 -34 -103q5 -1 16 -1q40 0 71 35q6 8 17 8t11 -10q0 -11 -14 -28q-43 -50 -101 -50q-16 0 -34 5q-56 -53 -121 -53q-44 0 -69.5 29t-25.5 73q0 69 50 128q38 45 55 45q14 0 14 -17q0 -6 -4 -10q-44 -46 -44 -115q0 -38 16.5 -63.5 t42.5 -25.5q27 0 52 25q-31 19 -50 50.5t-19 69.5q0 41 23 76t64 35q30 0 53 -23zM158 251q-17 0 -25.5 -14t-8.5 -33q0 -27 17 -53t44 -42q12 30 12 64q0 32 -10 55t-29 23zM267 353l-50 51l-107 -56q-6 -3 -11 -3q-11 0 -11 10q0 11 12 21l111 89q15 11 26 11t17 -13 l39 -96q2 -6 2 -8q0 -15 -13 -15q-6 0 -15 9z" />
<glyph unicode="&#xf5;" horiz-adv-x="313" d="M229 277q31 -30 31 -80q0 -54 -34 -103q5 -1 16 -1q40 0 71 35q6 8 17 8t11 -10q0 -11 -14 -28q-43 -50 -101 -50q-16 0 -34 5q-56 -53 -121 -53q-44 0 -69.5 29t-25.5 73q0 69 50 128q38 45 55 45q14 0 14 -17q0 -6 -4 -10q-44 -46 -44 -115q0 -38 16.5 -63.5 t42.5 -25.5q27 0 52 25q-31 19 -50 50.5t-19 69.5q0 41 23 76t64 35q30 0 53 -23zM158 251q-17 0 -25.5 -14t-8.5 -33q0 -27 17 -53t44 -42q12 30 12 64q0 32 -10 55t-29 23zM241 345q-16 0 -47 19t-40 19q-14 0 -24 -12q-6 -7 -15 -7q-12 0 -12 10q0 8 5 15q23 37 55 37 q15 0 47 -19.5t41 -19.5q13 0 23 12q6 7 15 7q11 0 11 -10q0 -11 -17 -31t-42 -20z" />
<glyph unicode="&#xf6;" horiz-adv-x="313" d="M229 277q31 -30 31 -80q0 -54 -34 -103q5 -1 16 -1q40 0 71 35q6 8 17 8t11 -10q0 -11 -14 -28q-43 -50 -101 -50q-16 0 -34 5q-56 -53 -121 -53q-44 0 -69.5 29t-25.5 73q0 69 50 128q38 45 55 45q14 0 14 -17q0 -6 -4 -10q-44 -46 -44 -115q0 -38 16.5 -63.5 t42.5 -25.5q27 0 52 25q-31 19 -50 50.5t-19 69.5q0 41 23 76t64 35q30 0 53 -23zM158 251q-17 0 -25.5 -14t-8.5 -33q0 -27 17 -53t44 -42q12 30 12 64q0 32 -10 55t-29 23zM276 442q12 0 21.5 -7t9.5 -20q0 -18 -20.5 -36.5t-42.5 -18.5q-13 0 -22 7.5t-9 19.5 q0 20 20 37.5t43 17.5zM156 442q12 0 21.5 -7t9.5 -20q0 -18 -20.5 -36.5t-42.5 -18.5q-13 0 -22 7.5t-9 19.5q0 20 20 37.5t43 17.5z" />
<glyph unicode="&#xf7;" horiz-adv-x="350" d="M316 350q15 0 15 -11q0 -12 -14 -24.5t-30 -12.5h-252q-16 0 -16 11t14.5 24t30.5 13h252zM221 475q18 0 29.5 -10t11.5 -27q0 -21 -19 -38.5t-43 -17.5q-17 0 -28.5 10t-11.5 26q0 22 18.5 39.5t42.5 17.5zM150 269q18 0 29.5 -10t11.5 -27q0 -21 -19 -38.5t-43 -17.5 q-17 0 -28.5 10t-11.5 26q0 22 18.5 39.5t42.5 17.5z" />
<glyph unicode="&#xf8;" horiz-adv-x="313" d="M-2 -23l24 35q-46 28 -46 90q0 69 50 128q38 45 55 45q14 0 14 -17q0 -6 -4 -10q-44 -46 -44 -115q0 -37 15 -61l40 59q-13 28 -13 58q0 41 23 76t64 35q18 0 34 -9l15 22q23 33 41 33q9 0 9 -9q0 -10 -12 -28l-27 -40q24 -29 24 -72q0 -54 -34 -103q5 -1 16 -1 q40 0 71 35q6 8 17 8t11 -10q0 -11 -14 -28q-43 -50 -101 -50q-16 0 -34 5q-56 -53 -121 -53q-12 0 -17 1l-18 -27q-22 -33 -42 -33q-8 0 -8 8q0 10 12 28zM197 173q0 13 -4 33l-45 -66q16 -19 37 -31q12 30 12 64zM158 251q-17 0 -25.5 -14t-8.5 -33q0 -17 6 -32l47 70 q-7 9 -19 9zM158 69q-18 10 -37 31l-35 -52q8 -4 20 -4q27 0 52 25z" />
<glyph unicode="&#xf9;" horiz-adv-x="329" d="M114 300q24 0 24 -18q0 -8 -4 -15l-30 -59q-25 -47 -36.5 -77t-11.5 -56t13 -26q21 0 64.5 58.5t79.5 137.5q12 25 32.5 39.5t36.5 14.5q19 0 19 -16q0 -7 -5 -18q-79 -182 -79 -205q0 -14 10 -14q30 0 102 82q6 8 17 8t11 -10q0 -11 -14 -28q-40 -47 -79 -72.5 t-67 -25.5q-48 0 -48 48q0 17 6 38q-62 -86 -119 -86q-22 0 -35.5 16.5t-13.5 47.5q0 52 51 154q5 10 5 13q0 4 -5 4q-1 0 -4 -0.5t-5 -0.5q-14 0 -14 10q0 15 32.5 35.5t66.5 20.5zM290 374q9 -8 9 -16q0 -14 -13 -14q-2 0 -10 3l-8 3l-131 48q-14 6 -14 17q0 5 2 11l12 36 q5 14 16 14q5 0 13 -5z" />
<glyph unicode="&#xfa;" horiz-adv-x="329" d="M114 300q24 0 24 -18q0 -8 -4 -15l-30 -59q-25 -47 -36.5 -77t-11.5 -56t13 -26q21 0 64.5 58.5t79.5 137.5q12 25 32.5 39.5t36.5 14.5q19 0 19 -16q0 -7 -5 -18q-79 -182 -79 -205q0 -14 10 -14q30 0 102 82q6 8 17 8t11 -10q0 -11 -14 -28q-40 -47 -79 -72.5 t-67 -25.5q-48 0 -48 48q0 17 6 38q-62 -86 -119 -86q-22 0 -35.5 16.5t-13.5 47.5q0 52 51 154q5 10 5 13q0 4 -5 4q-1 0 -4 -0.5t-5 -0.5q-14 0 -14 10q0 15 32.5 35.5t66.5 20.5zM134 346q-6 -2 -9 -2q-11 0 -11 11q0 15 18 26l151 91q5 4 12 4q13 0 13 -14 q0 -1 -0.5 -2.5t-0.5 -2.5l-15 -42q-5 -16 -22 -22z" />
<glyph unicode="&#xfb;" horiz-adv-x="329" d="M114 300q24 0 24 -18q0 -8 -4 -15l-30 -59q-25 -47 -36.5 -77t-11.5 -56t13 -26q21 0 64.5 58.5t79.5 137.5q12 25 32.5 39.5t36.5 14.5q19 0 19 -16q0 -7 -5 -18q-79 -182 -79 -205q0 -14 10 -14q30 0 102 82q6 8 17 8t11 -10q0 -11 -14 -28q-40 -47 -79 -72.5 t-67 -25.5q-48 0 -48 48q0 17 6 38q-62 -86 -119 -86q-22 0 -35.5 16.5t-13.5 47.5q0 52 51 154q5 10 5 13q0 4 -5 4q-1 0 -4 -0.5t-5 -0.5q-14 0 -14 10q0 15 32.5 35.5t66.5 20.5zM273 353l-50 51l-107 -56q-6 -3 -11 -3q-11 0 -11 10q0 11 12 21l111 89q15 11 26 11 t17 -13l39 -96q2 -6 2 -8q0 -15 -13 -15q-6 0 -15 9z" />
<glyph unicode="&#xfc;" horiz-adv-x="329" d="M114 300q24 0 24 -18q0 -8 -4 -15l-30 -59q-25 -47 -36.5 -77t-11.5 -56t13 -26q21 0 64.5 58.5t79.5 137.5q12 25 32.5 39.5t36.5 14.5q19 0 19 -16q0 -7 -5 -18q-79 -182 -79 -205q0 -14 10 -14q30 0 102 82q6 8 17 8t11 -10q0 -11 -14 -28q-40 -47 -79 -72.5 t-67 -25.5q-48 0 -48 48q0 17 6 38q-62 -86 -119 -86q-22 0 -35.5 16.5t-13.5 47.5q0 52 51 154q5 10 5 13q0 4 -5 4q-1 0 -4 -0.5t-5 -0.5q-14 0 -14 10q0 15 32.5 35.5t66.5 20.5zM282 442q12 0 21.5 -7t9.5 -20q0 -18 -20.5 -36.5t-42.5 -18.5q-13 0 -22 7.5t-9 19.5 q0 20 20 37.5t43 17.5zM162 442q12 0 21.5 -7t9.5 -20q0 -18 -20.5 -36.5t-42.5 -18.5q-13 0 -22 7.5t-9 19.5q0 20 20 37.5t43 17.5z" />
<glyph unicode="&#xfd;" horiz-adv-x="326" d="M113 300q24 0 24 -19q0 -7 -3 -14l-24 -47l-27 -52q-10 -20 -18.5 -46.5t-8.5 -46.5q0 -27 14 -27q19 0 57 50t72 119q19 38 22 42q27 40 60 40q21 0 21 -17q0 -7 -4 -14q-55 -116 -90 -238q90 64 118 98q6 8 17 8t11 -10q0 -11 -14 -28q-32 -40 -147 -122 q-23 -90 -43 -196q-14 -72 -52.5 -114t-81.5 -42q-37 0 -56.5 30t-19.5 71q0 114 155 228l30 22q15 61 29 112q-62 -87 -119 -87q-22 0 -35.5 16.5t-13.5 47.5q0 42 51 154q5 12 5 13q0 4 -4 4q-1 0 -4 -1t-6 -1q-13 0 -13 11q0 13 20 27q40 29 78 29zM74 -122 q-30 -30 -48.5 -73t-18.5 -81q0 -30 10.5 -44t21.5 -14q13 0 20.5 17.5t15.5 55.5l36 173q-21 -16 -37 -34zM134 346q-6 -2 -9 -2q-11 0 -11 11q0 15 18 26l151 91q5 4 12 4q13 0 13 -14q0 -1 -0.5 -2.5t-0.5 -2.5l-15 -42q-5 -16 -22 -22z" />
<glyph unicode="&#xfe;" horiz-adv-x="338" d="M151 570q4 12 4 14q0 4 -4 4q-1 0 -4 -1t-7 -1q-11 0 -11 11q0 14 31.5 34.5t65.5 20.5q17 0 17 -17q0 -6 -3 -15l-134 -387q58 67 113 67q36 0 56.5 -27.5t20.5 -61.5q0 -58 -39 -117q5 -1 15 -1q17 0 29 5t18.5 10.5t18.5 19.5q6 8 17 8t11 -10q0 -11 -14 -28 q-40 -47 -86 -47q-20 0 -38 6q-49 -57 -113 -57q-22 0 -36 10.5t-14 30.5q0 29 22.5 48.5t64.5 19.5q23 0 53 -6q17 42 17 85q0 60 -39 60q-30 0 -66 -45t-54 -98l-134 -388q-8 -22 -27.5 -36.5t-36.5 -14.5t-17 16q0 6 3 15zM152 80q-15 0 -24 -8.5t-9 -21.5q0 -18 18 -18 q26 0 52 39q-26 8 -37 9z" />
<glyph unicode="&#xff;" horiz-adv-x="326" d="M113 300q24 0 24 -19q0 -7 -3 -14l-24 -47l-27 -52q-10 -20 -18.5 -46.5t-8.5 -46.5q0 -27 14 -27q19 0 57 50t72 119q19 38 22 42q27 40 60 40q21 0 21 -17q0 -7 -4 -14q-55 -116 -90 -238q90 64 118 98q6 8 17 8t11 -10q0 -11 -14 -28q-32 -40 -147 -122 q-23 -90 -43 -196q-14 -72 -52.5 -114t-81.5 -42q-37 0 -56.5 30t-19.5 71q0 114 155 228l30 22q15 61 29 112q-62 -87 -119 -87q-22 0 -35.5 16.5t-13.5 47.5q0 42 51 154q5 12 5 13q0 4 -4 4q-1 0 -4 -1t-6 -1q-13 0 -13 11q0 13 20 27q40 29 78 29zM74 -122 q-30 -30 -48.5 -73t-18.5 -81q0 -30 10.5 -44t21.5 -14q13 0 20.5 17.5t15.5 55.5l36 173q-21 -16 -37 -34zM282 442q12 0 21.5 -7t9.5 -20q0 -18 -20.5 -36.5t-42.5 -18.5q-13 0 -22 7.5t-9 19.5q0 20 20 37.5t43 17.5zM162 442q12 0 21.5 -7t9.5 -20q0 -18 -20.5 -36.5 t-42.5 -18.5q-13 0 -22 7.5t-9 19.5q0 20 20 37.5t43 17.5z" />
<glyph unicode="&#x152;" horiz-adv-x="855" d="M501 175q-15 9 -31 24q-31 -79 -73.5 -136t-88.5 -84.5t-85.5 -39.5t-78.5 -12q-80 0 -123.5 57.5t-43.5 153.5q0 92 40 188t97 165.5t121 114t112 44.5q22 0 22 -14q0 -12 -16 -18q-67 -25 -123 -81t-90.5 -124.5t-53 -139.5t-18.5 -133q0 -84 28 -127.5t68 -43.5 q62 0 131.5 69.5t110.5 203.5q27 88 27 155q0 53 -16.5 81.5t-43.5 28.5q-38 0 -80 -55.5t-72 -157.5q-11 -38 -11 -75q0 -46 16 -59q8 -7 8 -15q0 -13 -17 -13q-42 0 -63 30.5t-21 78.5q0 37 12 73q39 115 111.5 180.5t143.5 65.5q69 0 100 -62q62 71 146 112.5t151 41.5 q50 0 83.5 -31.5t33.5 -87.5q0 -76 -64 -139.5t-152 -63.5q-23 0 -39.5 6t-17.5 14q0 8 20 13q87 20 134.5 72.5t47.5 105.5q0 31 -17 50.5t-48 19.5q-38 0 -85.5 -27.5t-88 -70t-68.5 -98t-28 -105.5q0 -61 40 -97q69 44 134 44q28 0 44.5 -11t16.5 -32q0 -29 -29.5 -50 t-91.5 -21q-35 0 -62 8q-32 -47 -32 -92q0 -68 77 -68q47 0 97 23q59 28 92.5 55t78.5 82q10 10 16 10q10 0 10 -15q0 -10 -10 -23q-89 -109 -189 -158q-72 -36 -135 -36q-48 0 -86 29t-38 87q0 70 60 130zM678 207q0 15 -17 15q-29 0 -69 -35q23 -9 42 -9q18 0 31 9.5 t13 19.5z" />
<glyph unicode="&#x153;" horiz-adv-x="471" d="M48 132q0 -32 14.5 -60t45.5 -28q20 0 40 15.5t33 41.5q-44 8 -65 37.5t-21 66.5q0 40 22.5 67.5t58.5 27.5q46 0 73 -49q52 49 121 49q35 0 54 -18.5t19 -45.5q0 -17 -11 -39t-31.5 -45t-58 -39t-83.5 -17q12 -49 69 -49q74 0 143 81q6 8 17 8q12 0 12 -11t-14 -28 q-38 -45 -88.5 -71.5t-99.5 -26.5q-74 0 -103 57q-58 -56 -125 -56q-44 0 -69 29t-25 73q0 68 51 128q37 45 54 45q6 0 10.5 -5.5t4.5 -11.5q0 -4 -4 -10q-44 -46 -44 -116zM369 216q3 12 3 20q0 28 -23 28q-25 0 -54 -35t-37 -91q39 2 70.5 22.5t40.5 55.5zM129 230 q-2 -8 -2 -13q0 -22 18.5 -43.5t49.5 -30.5q2 18 2 28q0 32 -10 56.5t-28 24.5q-23 0 -30 -22z" />
<glyph unicode="&#x178;" horiz-adv-x="497" d="M405 352l56 162q7 21 28.5 36t40.5 15q21 0 21 -18q0 -7 -3 -14l-187 -541q52 -3 81.5 -22t29.5 -47q0 -17 -13 -38.5t-29 -21.5q-14 0 -14 13q0 3 1 9.5t1 9.5q0 51 -69 60l-3 -9q-32 -94 -88.5 -136t-112.5 -42q-38 0 -62.5 20t-24.5 48q0 51 67.5 91.5t152.5 57.5 l58 166q-111 -151 -195 -151q-38 0 -60.5 30t-22.5 68q0 52 30 125t76.5 161.5t63.5 133.5q9 26 9 44q0 23 -12 35.5t-33 12.5q-54 0 -107 -66q-56 -70 -56 -134q0 -26 9.5 -42t23.5 -16q3 0 8 1t7 1q11 0 11 -10q0 -16 -20.5 -30t-41.5 -14q-30 0 -54.5 24t-24.5 64 q0 48 41 110t106.5 108t127.5 46q98 0 98 -79q0 -28 -11 -56q-22 -59 -66 -147.5t-71 -152t-27 -100.5q0 -50 34 -50q45 0 114.5 81.5t111.5 203.5zM143 -147q0 -14 10.5 -24t23.5 -10q18 0 36.5 16.5t29.5 46.5l23 67q-51 -12 -87 -38t-36 -58zM531 715q12 0 21.5 -7 t9.5 -20q0 -18 -20.5 -36.5t-42.5 -18.5q-13 0 -22 7.5t-9 19.5q0 20 20 37.5t43 17.5zM411 715q12 0 21.5 -7t9.5 -20q0 -18 -20.5 -36.5t-42.5 -18.5q-13 0 -22 7.5t-9 19.5q0 20 20 37.5t43 17.5z" />
<glyph unicode="&#x2c6;" d="M336 705l-50 51l-107 -56q-6 -3 -11 -3q-11 0 -11 10q0 11 12 21l111 89q15 11 26 11t17 -13l39 -96q2 -6 2 -8q0 -15 -13 -15q-6 0 -15 9z" />
<glyph unicode="&#x2dc;" d="M310 697q-16 0 -47 19t-40 19q-13 0 -24 -12q-6 -7 -15 -7q-12 0 -12 10q0 8 5 15q23 37 55 37q16 0 47 -19.5t41 -19.5q13 0 23 12q6 7 15 7q11 0 11 -10q0 -11 -17 -31t-42 -20z" />
<glyph unicode="&#x2000;" horiz-adv-x="417" />
<glyph unicode="&#x2001;" horiz-adv-x="834" />
<glyph unicode="&#x2002;" horiz-adv-x="417" />
<glyph unicode="&#x2003;" horiz-adv-x="834" />
<glyph unicode="&#x2004;" horiz-adv-x="278" />
<glyph unicode="&#x2005;" horiz-adv-x="208" />
<glyph unicode="&#x2006;" horiz-adv-x="139" />
<glyph unicode="&#x2007;" horiz-adv-x="139" />
<glyph unicode="&#x2008;" horiz-adv-x="104" />
<glyph unicode="&#x2009;" horiz-adv-x="166" />
<glyph unicode="&#x200a;" horiz-adv-x="46" />
<glyph unicode="&#x2010;" horiz-adv-x="237" d="M177 195q15 0 15 -11t-14.5 -24t-30.5 -13h-139q-15 0 -15 11t14 24t30 13h140z" />
<glyph unicode="&#x2011;" horiz-adv-x="237" d="M177 195q15 0 15 -11t-14.5 -24t-30.5 -13h-139q-15 0 -15 11t14 24t30 13h140z" />
<glyph unicode="&#x2013;" horiz-adv-x="350" d="M290 195q15 0 15 -11t-14.5 -24t-30.5 -13h-252q-15 0 -15 11t14 24t30 13h253z" />
<glyph unicode="&#x2014;" horiz-adv-x="494" d="M434 195q15 0 15 -11t-14.5 -24t-30.5 -13h-396q-15 0 -15 11t14 24t30 13h397z" />
<glyph unicode="&#x2018;" horiz-adv-x="170" d="M221 637q-26 -28 -31 -43q6 2 10 2q16 0 25.5 -10t9.5 -27q0 -21 -18.5 -39t-42.5 -18q-18 0 -29.5 11.5t-11.5 29.5q0 23 17.5 54t59.5 54q4 2 7 2q8 0 8 -7q0 -5 -4 -9z" />
<glyph unicode="&#x2019;" horiz-adv-x="170" d="M127 517q26 28 31 43q-6 -2 -10 -2q-16 0 -25.5 10t-9.5 27q0 21 18.5 39t42.5 18q18 0 29.5 -11.5t11.5 -29.5q0 -23 -17.5 -54t-59.5 -54q-4 -2 -7 -2q-8 0 -8 7q0 5 4 9z" />
<glyph unicode="&#x201a;" horiz-adv-x="170" d="M-52 -41q26 28 31 42q-3 -1 -8 -1q-13 0 -25 10t-12 27q0 22 18 39.5t43 17.5q19 0 30 -11.5t11 -30.5q0 -21 -18 -52.5t-59 -54.5q-6 -2 -7 -2q-8 0 -8 7q0 5 4 9z" />
<glyph unicode="&#x201c;" horiz-adv-x="306" d="M221 637q-26 -28 -31 -43q6 2 10 2q16 0 25.5 -10t9.5 -27q0 -21 -18.5 -39t-42.5 -18q-18 0 -29.5 11.5t-11.5 29.5q0 23 17.5 54t59.5 54q4 2 7 2q8 0 8 -7q0 -5 -4 -9zM357 637q-26 -28 -31 -43q6 2 10 2q16 0 25.5 -10t9.5 -27q0 -21 -18.5 -39t-42.5 -18 q-18 0 -29.5 11.5t-11.5 29.5q0 23 17.5 54t59.5 54q4 2 7 2q8 0 8 -7q0 -5 -4 -9z" />
<glyph unicode="&#x201d;" horiz-adv-x="306" d="M263 517q26 28 31 43q-6 -2 -10 -2q-16 0 -25.5 10t-9.5 27q0 21 18.5 39t42.5 18q18 0 29.5 -11.5t11.5 -29.5q0 -23 -17.5 -54t-59.5 -54q-4 -2 -7 -2q-8 0 -8 7q0 5 4 9zM127 517q26 28 31 43q-6 -2 -10 -2q-16 0 -25.5 10t-9.5 27q0 21 18.5 39t42.5 18 q18 0 29.5 -11.5t11.5 -29.5q0 -23 -17.5 -54t-59.5 -54q-4 -2 -7 -2q-8 0 -8 7q0 5 4 9z" />
<glyph unicode="&#x201e;" horiz-adv-x="306" d="M-52 -41q26 28 31 42q-3 -1 -8 -1q-13 0 -25 10t-12 27q0 22 18 39.5t43 17.5q19 0 30 -11.5t11 -30.5q0 -21 -18 -52.5t-59 -54.5q-6 -2 -7 -2q-8 0 -8 7q0 5 4 9zM84 -41q26 28 31 42q-3 -1 -8 -1q-13 0 -25 10t-12 27q0 22 18 39.5t43 17.5q19 0 30 -11.5t11 -30.5 q0 -21 -18 -52.5t-59 -54.5q-6 -2 -7 -2q-8 0 -8 7q0 5 4 9z" />
<glyph unicode="&#x2022;" horiz-adv-x="226" d="M69 208q20 0 35 -12.5t15 -33.5q0 -27 -24 -49.5t-54 -22.5q-21 0 -35.5 13t-14.5 33q0 27 24.5 49.5t53.5 22.5z" />
<glyph unicode="&#x2026;" horiz-adv-x="621" d="M98 101q16 0 27 -8.5t11 -24.5q0 -24 -23.5 -46t-53.5 -22q-16 0 -27 9t-11 24q0 25 23.5 46.5t53.5 21.5zM305 101q16 0 27 -8.5t11 -24.5q0 -24 -23.5 -46t-53.5 -22q-16 0 -27 9t-11 24q0 25 23.5 46.5t53.5 21.5zM512 101q16 0 27 -8.5t11 -24.5q0 -24 -23.5 -46 t-53.5 -22q-16 0 -27 9t-11 24q0 25 23.5 46.5t53.5 21.5z" />
<glyph unicode="&#x202f;" horiz-adv-x="166" />
<glyph unicode="&#x2039;" horiz-adv-x="262" d="M244 272l-121 -133l33 -122q2 -8 2 -11q0 -10 -11 -10q-9 0 -16 11l-70 107q-6 9 -6 20q0 23 21 39l151 119q6 4 11 4q12 0 12 -11q0 -7 -6 -13z" />
<glyph unicode="&#x203a;" horiz-adv-x="262" d="M5 18l121 133l-33 122q-2 8 -2 11q0 10 11 10q9 0 16 -11l70 -107q6 -9 6 -20q0 -23 -21 -39l-151 -119q-6 -4 -11 -4q-12 0 -12 11q0 7 6 13z" />
<glyph unicode="&#x205f;" horiz-adv-x="208" />
<glyph unicode="&#x20ac;" horiz-adv-x="383" d="M28 327q-15 0 -15 9q0 10 12.5 19.5t27.5 9.5h20q36 84 105 139.5t143 55.5q36 0 60 -16t24 -46q0 -21 -13.5 -35.5t-30.5 -14.5q-8 0 -16 4t-8 11q0 8 9 14q8 5 8 16q0 14 -13.5 24.5t-39.5 10.5q-44 0 -84.5 -48.5t-68.5 -114.5h176q15 0 15 -9t-13 -19t-27 -10h-166 l-5 -20q-2 -4 -4 -16h174q15 0 15 -10q0 -9 -12.5 -18.5t-27.5 -9.5h-155q-2 -13 -2 -39q0 -113 75 -113q32 0 57.5 21.5t36.5 42.5q7 13 20 13q12 0 12 -11q0 -4 -1 -7q-16 -38 -51 -66.5t-85 -29.5q-67 0 -101 44t-34 118q0 18 1 27h-44q-15 0 -15 9t12.5 19t27.5 10h25 q2 12 8 36h-32z" />
<glyph unicode="&#x2122;" horiz-adv-x="510" d="M367 646q8 5 17 5q13 0 13 -10q0 -5 -1 -7l-36 -105q31 44 91 106q17 17 31 17q16 0 16 -14q0 -8 -36 -109q38 50 91 106q17 17 32 17q16 0 16 -15q0 -3 -3 -12l-63 -182q-3 -7 -3 -19q0 -31 17 -43q5 -4 5 -8q0 -8 -8 -8q-15 0 -34.5 19t-19.5 48q0 10 3 19l43 126 q-90 -111 -114 -159l-1 -2q-12 -20 -31 -20q-13 0 -13 12q0 4 1 7l56 162l-7 -8q-84 -105 -109 -153q-10 -20 -31 -20q-12 0 -12 12q0 4 1 7l65 187q-6 -2 -16 -2q-14 0 -38 6l-63 -185q-4 -11 -14.5 -18t-19.5 -7q-12 0 -12 13q0 5 4 15l67 194q-37 11 -54 11 q-8 0 -16.5 -1.5t-20 -7t-19 -18.5t-7.5 -33q0 -24 14 -37.5t31 -14.5q13 0 13 -10q0 -17 -35 -17q-26 0 -42 18t-16 48q0 34 28.5 65t83.5 31q31 0 72 -9t50 -9q13 0 34 12z" />
</font>
</defs>
</svg>
